<?xml version="1.0" standalone="no"?>
<!DOCTYPE svg PUBLIC "-//W3C//DTD SVG 1.1//EN" "http://www.w3.org/Graphics/SVG/1.1/DTD/svg11.dtd" >
<svg xmlns="http://www.w3.org/2000/svg" xmlns:xlink="http://www.w3.org/1999/xlink" version="1.1">
<metadata>
Created by FontForge 20170731 at Tue Oct  4 22:26:45 2005
 By Aleksey,,,
(c) Copyright 2005 by Tong Duc Thinh. All Rights Reserved
</metadata>
<defs>
<font id="SFUGillSansBoldItalic" horiz-adv-x="552" >
  <font-face 
    font-family="SFU GillSans"
    font-weight="700"
    font-style="italic"
    font-stretch="normal"
    units-per-em="1000"
    panose-1="0 0 7 0 0 0 0 0 0 0"
    ascent="800"
    descent="-200"
    x-height="454"
    cap-height="682"
    bbox="-190 -250 1074 1134"
    underline-thickness="50"
    underline-position="-175"
    slope="-11"
    unicode-range="U+0020-F002"
  />
<missing-glyph horiz-adv-x="500" 
d="M63 0v1134h375v-1134h-375zM125 63h250v1009h-250v-1009z" />
    <glyph glyph-name=".notdef" horiz-adv-x="500" 
d="M63 0v1134h375v-1134h-375zM125 63h250v1009h-250v-1009z" />
    <glyph glyph-name=".null" horiz-adv-x="0" 
 />
    <glyph glyph-name="nonmarkingreturn" horiz-adv-x="278" 
 />
    <glyph glyph-name="space" unicode=" " horiz-adv-x="278" 
 />
    <glyph glyph-name="exclam" unicode="!" horiz-adv-x="260" 
d="M159 213h-80l17 304q7 122 38 153q21 21 51 21q64 0 64 -73q0 -44 -18 -116zM101 160q35 0 59.5 -24.5t24.5 -59.5t-24.5 -59.5t-59.5 -24.5q-34 0 -59 25t-25 59q0 35 24.5 59.5t59.5 24.5z" />
    <glyph glyph-name="quotedbl" unicode="&#x22;" horiz-adv-x="479" 
d="M461 595l-24 -134h-87l-24 134v121h135v-121zM88 595v121h135v-121l-24 -134h-87z" />
    <glyph glyph-name="numbersign" unicode="#" horiz-adv-x="584" 
d="M-6 452h145l38 179h113l-38 -179h154l38 179h111l-38 -179h74v-111h-96l-27 -131h123v-111h-147l-38 -179h-111l37 179h-153l-37 -179h-114l38 179h-72v111h95l27 131h-122v111zM229 341l-27 -131h153l27 131h-153z" />
    <glyph glyph-name="dollar" unicode="$" horiz-adv-x="490" 
d="M473 594l-14 -99q-60 38 -129 56l-25 -178q66 -38 97 -73q42 -48 42 -111q0 -81 -55.5 -135.5t-137.5 -62.5l-16 -114h-78l16 118q-82 14 -160 58l18 101q79 -51 156 -62l27 194q-66 36 -97 71q-42 48 -42 111q0 79 57 130q52 46 134 56l5 37h78l-6 -43q74 -17 130 -54z
M233 417l19 137q-66 -20 -66 -71q0 -34 47 -66zM286 242l-20 -147q66 24 66 79q0 42 -46 68z" />
    <glyph glyph-name="percent" unicode="%" horiz-adv-x="719" 
d="M269 530q0 30 -20.5 52.5t-50.5 22.5q-31 0 -51 -22t-20 -53q0 -30 20.5 -52.5t50.5 -22.5q31 0 51 22t20 53zM359 530q0 -67 -47 -114t-114 -47t-114 47t-47 114t47 114t114 47t114 -47t47 -114zM651 691l-477 -699h-83l480 699h80zM707 152q0 -67 -47 -114t-114 -47
t-114 47t-47 114t47 114t114 47t114 -47t47 -114zM617 152q0 30 -20.5 52.5t-50.5 22.5q-31 0 -51 -22t-20 -53q0 -30 20.5 -52.5t50.5 -22.5q31 0 51 22t20 53z" />
    <glyph glyph-name="ampersand" unicode="&#x26;" horiz-adv-x="729" 
d="M556 306h132q-37 -94 -113 -172q40 -17 89 -17h42l-46 -117q-23 -9 -54 -9q-88 0 -157 54q-94 -54 -193 -54q-98 0 -166 54q-75 58 -75 153q0 100 81 161q68 52 175 67q-1 15 -1 30q0 106 59.5 170.5t164.5 64.5q70 0 117 -37q51 -40 51 -108q0 -151 -242 -193
q24 -88 63 -148q51 43 73 101zM554 548q0 28 -20 44t-48 16q-45 0 -68 -33q-20 -28 -20 -75q0 -27 6 -51q150 30 150 99zM165 210q0 -50 33.5 -80.5t83.5 -30.5q42 0 89 23q-61 98 -83 202q-123 -22 -123 -114z" />
    <glyph glyph-name="quotesingle" unicode="'" horiz-adv-x="240" 
d="M218 595l-24 -134h-87l-24 134v121h135v-121z" />
    <glyph glyph-name="parenleft" unicode="(" horiz-adv-x="344" 
d="M275 691h102q-92 -116 -143 -274q-50 -152 -50 -305q0 -191 64 -342h-103q-101 220 -101 383q0 264 231 538z" />
    <glyph glyph-name="parenright" unicode=")" horiz-adv-x="344" 
d="M65 -230h-102q92 116 143 274q50 152 50 305q0 191 -64 342h103q101 -220 101 -383q0 -263 -231 -538z" />
    <glyph glyph-name="asterisk" unicode="*" horiz-adv-x="479" 
d="M324 301q3 -10 3 -16q0 -21 -29 -21h-61q-31 0 -31 20q0 7 3 17l44 142l-12 11l-99 -102q-21 -22 -32 -22q-10 0 -18 16l-28 53q-6 11 -6 22q0 17 21 22l152 33v2l-152 34q-22 5 -22 23q0 8 5 17l30 57q9 18 17 18q10 0 33 -24l99 -102l12 11l-44 142q-3 10 -3 16
q0 21 31 21h58q32 0 32 -20q0 -7 -3 -17l-44 -142l12 -11l99 102q22 23 31 23q8 0 19 -20l25 -45q10 -18 10 -28q0 -16 -22 -21l-152 -34v-2l152 -33q21 -5 21 -23q0 -10 -7 -23l-26 -47q-12 -22 -20 -22q-7 0 -23 16l-107 110l-12 -11z" />
    <glyph glyph-name="plus" unicode="+" horiz-adv-x="584" 
d="M55 289v128h186v186h128v-186h186v-128h-186v-186h-128v186h-186z" />
    <glyph glyph-name="comma" unicode="," horiz-adv-x="260" 
d="M-45 -145l15 61q64 15 86 72q-48 27 -48 76q0 35 24.5 57.5t59.5 22.5q41 0 68.5 -31.5t27.5 -73.5q0 -86 -76 -138q-67 -46 -157 -46z" />
    <glyph glyph-name="hyphen" unicode="-" horiz-adv-x="344" 
d="M338 294l-20 -138h-312l19 138h313z" />
    <glyph glyph-name="hyphen" unicode="&#x2010;" horiz-adv-x="344" 
d="M338 294l-20 -138h-312l19 138h313z" />
    <glyph glyph-name="period" unicode="." horiz-adv-x="260" 
d="M95 160q35 0 59.5 -24.5t24.5 -59.5t-24.5 -59.5t-59.5 -24.5q-34 0 -59 25t-25 59q0 35 24.5 59.5t59.5 24.5z" />
    <glyph glyph-name="slash" unicode="/" horiz-adv-x="281" 
d="M18 -9l169 700h103l-171 -700h-101z" />
    <glyph glyph-name="zero" unicode="0" horiz-adv-x="531" 
d="M506 434q0 -157 -65 -287q-78 -156 -204 -156q-97 0 -146 84q-39 68 -39 173q0 163 65 292q76 151 203 151q98 0 147 -84q39 -67 39 -173zM364 474q0 90 -53 90q-58 0 -92 -143q-25 -106 -25 -210q0 -93 54 -93q55 0 90 156q26 116 26 200z" />
    <glyph glyph-name="one" unicode="1" horiz-adv-x="531" 
d="M399 682l-96 -682h-141l96 682h141z" />
    <glyph glyph-name="two" unicode="2" horiz-adv-x="531" 
d="M440 139l-19 -139h-392v22q132 174 169 227q126 182 126 247q0 30 -21.5 49t-51.5 19q-48 0 -145 -62l19 137q68 52 152 52q82 0 135.5 -50.5t53.5 -131.5q0 -71 -47 -154q-33 -57 -149 -216h170z" />
    <glyph glyph-name="three" unicode="3" horiz-adv-x="531" 
d="M103 519l19 135q83 37 162 37q86 0 144 -45q62 -49 62 -133q0 -128 -114 -165q79 -41 79 -143t-78 -161q-71 -53 -176 -53q-79 0 -172 43l18 130q88 -46 150 -46q43 0 76.5 25t33.5 66q0 42 -36 65q-30 19 -75 19q-23 0 -52 -5l18 130q47 -11 77 -11q42 0 73 20
q36 24 36 64q0 34 -24.5 53.5t-59.5 19.5q-59 0 -161 -45z" />
    <glyph glyph-name="four" unicode="4" horiz-adv-x="531" 
d="M478 691l-62 -441h74l-13 -93h-74l-22 -157h-141l22 157h-233v114l336 420h113zM305 476l-181 -226h151l32 224z" />
    <glyph glyph-name="five" unicode="5" horiz-adv-x="531" 
d="M486 682l-20 -139h-179l-16 -112q186 -21 186 -201q0 -111 -72.5 -175t-184.5 -64q-99 0 -177 51l40 127q75 -51 135 -51q48 0 82.5 27t34.5 74q0 51 -41 77q-35 23 -89 23q-36 0 -77 -6l62 369h316z" />
    <glyph glyph-name="six" unicode="6" horiz-adv-x="531" 
d="M449 682l-172 -266l2 -2q30 12 66 12q72 0 114 -53q39 -49 39 -123q0 -108 -69 -182q-70 -77 -177 -77q-95 0 -151.5 58.5t-56.5 154.5q0 104 92 244l154 234h159zM356 240q0 31 -17.5 50.5t-47.5 19.5q-45 0 -75 -35.5t-30 -81.5q0 -32 18.5 -53.5t50.5 -21.5
q44 0 74 40q27 37 27 82z" />
    <glyph glyph-name="seven" unicode="7" horiz-adv-x="531" 
d="M520 682l-269 -682h-149l215 543h-224l27 139h400z" />
    <glyph glyph-name="eight" unicode="8" horiz-adv-x="531" 
d="M379 352q98 -43 98 -152q0 -91 -66.5 -150t-159.5 -59q-89 0 -148 50q-63 53 -63 140q0 65 38 119.5t100 67.5q-67 48 -67 129q0 85 64 141q62 53 148 53q76 0 127 -44q55 -46 55 -121q0 -118 -126 -174zM363 511q0 23 -14 38t-36 15q-33 0 -52 -33q-16 -28 -16 -63
q0 -50 50 -50q33 0 52 31q16 26 16 62zM335 219q0 31 -18.5 51.5t-49.5 20.5q-38 0 -61.5 -31t-23.5 -70q0 -31 18 -51.5t49 -20.5q39 0 63 32q23 29 23 69z" />
    <glyph glyph-name="nine" unicode="9" horiz-adv-x="531" 
d="M107 0l173 268l-2 2q-35 -13 -65 -13q-71 0 -115 53q-40 49 -40 122q0 98 61 173q70 86 185 86q96 0 151.5 -58.5t55.5 -155.5q0 -104 -85 -233l-161 -244h-158zM369 491q0 31 -19.5 52t-50.5 21q-43 0 -71 -39.5t-28 -83.5q0 -31 18.5 -48.5t49.5 -17.5q45 0 73 35
t28 81z" />
    <glyph glyph-name="colon" unicode=":" horiz-adv-x="260" 
d="M149 462q35 0 59.5 -24.5t24.5 -59.5t-24.5 -59.5t-59.5 -24.5q-34 0 -59 25t-25 59q0 35 24.5 59.5t59.5 24.5zM95 160q35 0 59.5 -24.5t24.5 -59.5t-24.5 -59.5t-59.5 -24.5q-34 0 -59 25t-25 59q0 35 24.5 59.5t59.5 24.5z" />
    <glyph glyph-name="semicolon" unicode=";" horiz-adv-x="260" 
d="M-45 -145l15 61q64 15 86 72q-48 27 -48 76q0 35 24.5 57.5t59.5 22.5q41 0 68.5 -31.5t27.5 -73.5q0 -86 -76 -138q-67 -46 -157 -46zM149 462q35 0 59.5 -24.5t24.5 -59.5t-24.5 -59.5t-59.5 -24.5q-34 0 -59 25t-25 59q0 35 24.5 59.5t59.5 24.5z" />
    <glyph glyph-name="less" unicode="&#x3c;" horiz-adv-x="584" 
d="M60 295v120l491 213v-137l-343 -136l343 -136v-137z" />
    <glyph glyph-name="equal" unicode="=" horiz-adv-x="584" 
d="M55 180v128h500v-128h-500zM55 398v128h500v-128h-500z" />
    <glyph glyph-name="greater" unicode="&#x3e;" horiz-adv-x="584" 
d="M550 295l-491 -213v137l343 136l-343 136v137l491 -213v-120z" />
    <glyph glyph-name="question" unicode="?" horiz-adv-x="323" 
d="M178 216h-106q1 69 41 131q12 19 73 90q39 46 39 75q0 23 -17 35.5t-40 12.5q-49 0 -130 -48l19 132q75 47 144 47q70 0 117 -46t47 -115t-43 -123l-85 -85q-49 -50 -59 -106zM121 160q35 0 59.5 -24.5t24.5 -59.5t-24.5 -59.5t-59.5 -24.5q-34 0 -59 25t-25 59
q0 35 24.5 59.5t59.5 24.5z" />
    <glyph glyph-name="at" unicode="@" horiz-adv-x="979" 
d="M878 9h104q-57 -115 -181 -171q-106 -48 -248 -48q-202 0 -343 99q-170 119 -170 341q0 192 111 329q137 169 390 169q177 0 292 -96q123 -103 123 -277q0 -141 -90 -245q-94 -110 -233 -110q-75 0 -89 56q-56 -56 -132 -56q-87 0 -139 60q-49 57 -49 145q0 117 67 214
q76 110 195 110q90 0 131 -66l12 54h129l-78 -370q-3 -14 -3 -22q0 -25 19 -25q47 0 105 73q67 84 67 184q0 112 -72 188q-89 95 -263 95q-205 0 -315 -138q-90 -113 -90 -271q0 -173 124 -267q111 -86 289 -86q233 0 337 131zM350 203q0 -47 20 -78q24 -36 68 -36
q75 0 119 95q33 72 33 143q0 47 -21 78q-25 36 -70 36q-74 0 -116 -86q-33 -69 -33 -152z" />
    <glyph glyph-name="A" unicode="A" horiz-adv-x="625" 
d="M461 691l120 -691h-149l-21 149h-212l-66 -149h-160l334 691h154zM361 548l-120 -302h158l-36 302h-2z" />
    <glyph glyph-name="B" unicode="B" horiz-adv-x="635" 
d="M140 682h217q96 0 154 -34q73 -43 73 -131q0 -102 -99 -152q58 -17 92.5 -62t34.5 -105q0 -73 -55 -130q-66 -68 -179 -68h-334zM270 568l-23 -150h98q97 0 97 81q0 69 -96 69h-76zM232 304l-29 -190h138q121 0 121 100q0 90 -127 90h-103z" />
    <glyph glyph-name="C" unicode="C" horiz-adv-x="688" 
d="M688 666l-24 -126q-81 25 -165 25q-148 0 -228 -93q-63 -74 -63 -172q0 -87 55 -136q52 -47 140 -47q108 0 248 80l-21 -152q-123 -54 -240 -54q-145 0 -237 83q-95 85 -95 229q0 182 134 289q124 99 311 99q85 0 185 -25z" />
    <glyph glyph-name="D" unicode="D" horiz-adv-x="750" 
d="M136 682h227q186 0 278 -110q74 -88 74 -222q0 -146 -87 -245q-92 -105 -235 -105h-352zM265 568l-63 -454h136q106 0 166.5 66t60.5 172q0 100 -64 158t-166 58h-70z" />
    <glyph glyph-name="E" unicode="E" horiz-adv-x="583" 
d="M564 682l-16 -114h-281l-23 -161h247l-16 -114h-247l-25 -179h354l-16 -114h-499l96 682h426z" />
    <glyph glyph-name="F" unicode="F" horiz-adv-x="490" 
d="M531 682l-17 -114h-247l-22 -162h213l-16 -114h-213l-42 -292h-145l96 682h393z" />
    <glyph glyph-name="G" unicode="G" horiz-adv-x="740" 
d="M737 666l-17 -126q-93 25 -181 25q-136 0 -230 -61q-111 -72 -111 -200q0 -92 64 -142q58 -45 153 -45q50 0 102 13l17 121h-125l15 108h270l-49 -348q-71 -20 -212 -20q-163 0 -266 71q-119 82 -119 237q0 152 111 261q133 131 380 131q114 0 198 -25z" />
    <glyph glyph-name="H" unicode="H" horiz-adv-x="792" 
d="M777 682l-96 -682h-145l40 278h-348l-39 -278h-145l96 682h145l-38 -270h347l38 270h145z" />
    <glyph glyph-name="I" unicode="I" horiz-adv-x="302" 
d="M286 682l-96 -682h-145l96 682h145z" />
    <glyph glyph-name="J" unicode="J" horiz-adv-x="302" 
d="M288 682l-101 -717q-27 -195 -217 -195q-24 0 -52 3l16 113q56 1 80 26t32 82l97 688h145z" />
    <glyph glyph-name="K" unicode="K" horiz-adv-x="646" 
d="M704 682l-306 -308l265 -374h-168l-257 362l-51 -362h-145l96 682h145l-41 -291l2 -2l288 293h172z" />
    <glyph glyph-name="L" unicode="L" horiz-adv-x="531" 
d="M281 682l-80 -568h310l-16 -114h-455l96 682h145z" />
    <glyph glyph-name="M" unicode="M" horiz-adv-x="948" 
d="M862 682l32 -682h-140l-21 461h-2l-253 -461h-69l-120 474h-2l-154 -474h-146l222 682h159l110 -429l230 429h154z" />
    <glyph glyph-name="N" unicode="N" horiz-adv-x="781" 
d="M767 682l-95 -682h-138l-280 462h-2l-64 -462h-145l96 682h145l275 -445h2l61 445h145z" />
    <glyph glyph-name="O" unicode="O" horiz-adv-x="833" 
d="M797 380q0 -174 -109.5 -281.5t-283.5 -107.5q-146 0 -242 85q-102 89 -102 232q0 170 116 278q114 105 285 105q144 0 238 -82q98 -87 98 -229zM647 370q0 85 -55.5 140t-140.5 55q-101 0 -171 -74t-70 -176q0 -88 54 -143t141 -55q104 0 173 74t69 179z" />
    <glyph glyph-name="P" unicode="P" horiz-adv-x="583" 
d="M141 682h223q99 0 160 -51q65 -55 65 -152q0 -109 -71 -168q-65 -54 -176 -54h-115l-36 -257h-145zM271 574l-29 -210h61q59 0 95 25q41 28 41 84q0 101 -133 101h-35z" />
    <glyph glyph-name="Q" unicode="Q" horiz-adv-x="833" 
d="M693 -94l-115 -114q-181 42 -324 226q-85 45 -127 93q-67 77 -67 197q0 170 117 278q114 105 285 105q148 0 240 -82q95 -86 95 -232q0 -149 -88.5 -252.5t-235.5 -125.5q27 -34 76 -59.5t91 -25.5q18 0 32 5zM647 368q0 86 -54.5 141.5t-140.5 55.5q-104 0 -173 -74
t-69 -179q0 -87 53.5 -141t140.5 -54q104 0 173.5 73.5t69.5 177.5z" />
    <glyph glyph-name="R" unicode="R" horiz-adv-x="646" 
d="M138 682h234q117 0 180 -71q50 -57 50 -134q0 -71 -41 -118t-111 -60v-2q42 -18 72 -80l105 -217h-160l-65 138q-38 80 -51 97q-34 41 -94 41h-31l-38 -276h-145zM267 568l-26 -186h72q55 0 93 22q46 26 46 77q0 87 -114 87h-71z" />
    <glyph glyph-name="S" unicode="S" horiz-adv-x="521" 
d="M509 637l-20 -120q-34 25 -80 42q-50 18 -89 18q-38 0 -65 -18q-31 -21 -31 -57q0 -38 65 -79q102 -64 121 -82q65 -59 65 -141q0 -98 -68 -155q-63 -54 -163 -54q-133 0 -232 65l22 119q98 -70 193 -70q40 0 66 17q32 20 32 58q0 46 -65 90q-40 27 -121 81
q-65 58 -65 134q0 95 74 153q69 53 166 53q104 0 195 -54z" />
    <glyph glyph-name="T" unicode="T" horiz-adv-x="619" 
d="M666 682l-16 -114h-222l-80 -568h-145l80 568h-216l16 114h583z" />
    <glyph glyph-name="U" unicode="U" horiz-adv-x="750" 
d="M744 682l-60 -425q-38 -266 -314 -266q-134 0 -212 57q-90 64 -90 192q0 26 4 54l56 388h145l-55 -386q-3 -21 -3 -37q0 -69 43 -105.5t112 -36.5q72 0 116.5 40t54.5 112l58 413h145z" />
    <glyph glyph-name="V" unicode="V" 
d="M609 682l-333 -691h-71l-142 691h138l74 -401h2l183 401h149z" />
    <glyph glyph-name="W" unicode="W" horiz-adv-x="948" 
d="M998 682l-336 -691h-59l-110 422l-230 -422h-60l-139 691h137l72 -401h2l217 401h71l102 -401h2l184 401h147z" />
    <glyph glyph-name="X" unicode="X" horiz-adv-x="677" 
d="M742 682l-302 -347l202 -335h-159l-137 227l-203 -227h-180l309 350l-200 332h159l136 -224l195 224h180z" />
    <glyph glyph-name="Y" unicode="Y" horiz-adv-x="563" 
d="M618 682l-257 -396l-40 -286h-145l40 286l-144 396h145l88 -263l158 263h155z" />
    <glyph glyph-name="Z" unicode="Z" horiz-adv-x="635" 
d="M699 682l-455 -568h339l-16 -114h-598l456 568h-331l17 114h588z" />
    <glyph glyph-name="bracketleft" unicode="[" horiz-adv-x="375" 
d="M418 682l-16 -114h-130l-94 -675h129l-16 -114h-260l127 903h260z" />
    <glyph glyph-name="backslash" unicode="\" horiz-adv-x="281" 
d="M290 -9h-101l-171 700h103z" />
    <glyph glyph-name="bracketright" unicode="]" horiz-adv-x="375" 
d="M-47 -221l16 114h130l94 675h-129l16 114h260l-127 -903h-260z" />
    <glyph glyph-name="asciicircum" unicode="^" horiz-adv-x="583" 
d="M68 292l184 390h108l179 -390h-139l-96 239l-96 -239h-140z" />
    <glyph glyph-name="underscore" unicode="_" horiz-adv-x="500" 
d="M-6 -75h512v-50h-512v50z" />
    <glyph glyph-name="grave" unicode="`" horiz-adv-x="333" 
d="M301 504h-73l-177 172h161z" />
    <glyph glyph-name="a" unicode="a" 
d="M521 447l-63 -447h-135l6 42q-64 -51 -131 -51q-75 0 -119 62q-40 55 -40 133q0 137 98 210q89 66 231 66q77 0 153 -15zM342 132l30 216q-15 2 -29 2q-93 0 -135 -66q-29 -45 -29 -105q0 -87 66 -87q49 0 97 40z" />
    <glyph glyph-name="b" unicode="b" horiz-adv-x="542" 
d="M261 682l-39 -274q63 54 123 54q79 0 126 -64q43 -58 43 -140q0 -124 -85 -198q-80 -69 -207 -69q-110 0 -191 15l95 676h135zM207 298l-28 -194q24 -3 46 -3q148 0 148 151q0 41 -18 68q-20 32 -59 32q-44 0 -89 -54z" />
    <glyph glyph-name="c" unicode="c" horiz-adv-x="469" 
d="M451 446l-17 -122q-54 20 -98 20q-64 0 -111 -37q-50 -39 -50 -102q0 -104 118 -104q53 0 129 30l-16 -123q-66 -17 -140 -17q-100 0 -165.5 60t-65.5 159q0 114 91 185q83 67 200 67q75 0 125 -16z" />
    <glyph glyph-name="d" unicode="d" horiz-adv-x="542" 
d="M548 682l-95 -676q-87 -15 -156 -15q-112 0 -183 52q-80 58 -80 166q0 116 84 187q79 66 198 66q19 0 66 -5l31 225h135zM332 106l33 236q-18 2 -34 2q-66 0 -110 -34q-47 -38 -47 -102q0 -52 35 -81q32 -26 86 -26q14 0 37 5z" />
    <glyph glyph-name="e" unicode="e" horiz-adv-x="510" 
d="M468 208h-297q-5 -52 23.5 -84.5t80.5 -32.5q55 0 168 46l-24 -113q-88 -33 -158 -33q-103 0 -164.5 59.5t-61.5 161.5q0 104 71 177t175 73q88 0 141 -51.5t53 -139.5q0 -30 -7 -63zM184 286h159q1 9 1 17q0 30 -18 48t-48 18q-65 0 -94 -83z" />
    <glyph glyph-name="f" unicode="f" horiz-adv-x="333" 
d="M456 668l-15 -109q-44 22 -76 22q-89 0 -98 -127h87l-14 -100h-88l-78 -553h-135l78 553h-92l14 100h93q11 103 61 165q57 72 154 72q52 0 109 -23z" />
    <glyph glyph-name="g" unicode="g" horiz-adv-x="490" 
d="M506 454l-13 -100h-73q17 -37 17 -72q0 -77 -57 -123q-53 -43 -133 -43q-39 0 -47 -1q-35 -4 -35 -23q0 -18 71 -30q95 -15 132 -34q71 -35 71 -110q0 -148 -234 -148q-81 0 -135 19q-81 28 -81 93q0 67 112 102q-63 30 -63 84q0 60 92 84q-79 47 -79 131q0 78 63 127
q57 44 138 44h254zM312 298q0 65 -63 65q-74 0 -74 -100q0 -63 63 -63q74 0 74 98zM190 -43q-83 -11 -83 -53q0 -47 100 -47q106 0 106 43q0 22 -31 34q-18 7 -92 23z" />
    <glyph glyph-name="h" unicode="h" 
d="M261 682l-40 -280q71 60 152 60q60 0 93 -36t33 -97q0 -13 -3 -35l-41 -294h-135l41 291q3 24 -7.5 42.5t-34.5 18.5q-47 0 -113 -57l-41 -295h-135l96 682h135z" />
    <glyph glyph-name="i" unicode="i" horiz-adv-x="260" 
d="M228 454l-64 -454h-135l64 454h135zM176 650q29 0 49.5 -20.5t20.5 -49.5t-20.5 -49.5t-49.5 -20.5t-49.5 20.5t-20.5 49.5t20.5 49.5t49.5 20.5z" />
    <glyph glyph-name="j" unicode="j" horiz-adv-x="260" 
d="M225 454l-63 -446q-12 -84 -22 -117q-37 -121 -169 -121q-24 0 -47 6l16 108q44 0 63 27q13 19 20 68l67 475h135zM172 650q29 0 49.5 -20.5t20.5 -49.5t-20.5 -49.5t-49.5 -20.5t-49.5 20.5t-20.5 49.5t20.5 49.5t49.5 20.5z" />
    <glyph glyph-name="k" unicode="k" horiz-adv-x="509" 
d="M260 682l-60 -422l2 -2l162 196h167l-180 -216l175 -238h-164l-167 224l-31 -224h-135l96 682h135z" />
    <glyph glyph-name="l" unicode="l" horiz-adv-x="260" 
d="M263 682l-96 -682h-135l96 682h135z" />
    <glyph glyph-name="m" unicode="m" horiz-adv-x="823" 
d="M227 454l-8 -58l2 -2q71 68 142 68q96 0 115 -83q87 83 165 83q64 0 99 -39.5t35 -104.5q0 -14 -3 -36l-39 -282h-135l37 261q3 21 3 37q0 64 -39 64q-49 0 -110 -71l-41 -291h-135l35 260q3 22 3 41q0 61 -42 61q-43 0 -107 -71l-41 -291h-135l64 454h135z" />
    <glyph glyph-name="n" unicode="n" 
d="M229 454l-8 -51q77 59 155 59q123 0 123 -140q0 -19 -3 -41l-39 -281h-135l38 271q2 14 2 24q0 67 -42 67q-48 0 -114 -70l-41 -292h-135l64 454h135z" />
    <glyph glyph-name="o" unicode="o" horiz-adv-x="563" 
d="M522 248q0 -110 -74 -183.5t-184 -73.5q-95 0 -162 62t-67 157q0 106 77.5 179t184.5 73q98 0 161 -57q64 -60 64 -157zM382 252q0 43 -24 71.5t-67 28.5q-58 0 -91 -58q-25 -44 -25 -92q0 -41 25 -71t65 -30q54 0 87 50q30 45 30 101z" />
    <glyph glyph-name="p" unicode="p" horiz-adv-x="583" 
d="M277 542l-12 -88q40 8 83 8q89 0 144 -54.5t55 -143.5q0 -117 -83.5 -195t-201.5 -78q-25 0 -61 9l-32 -230h-135l72 515q-41 -31 -70 -69q-21 -28 -32 -28q-8 0 -8 9q0 20 27 67q37 64 96 112l23 166h135zM251 356l-34 -246q21 -9 41 -9q69 0 110 47q39 44 39 113
q0 101 -104 101q-24 0 -52 -6z" />
    <glyph glyph-name="q" unicode="q" 
d="M521 460l-97 -690h-135l37 261q-74 -39 -132 -39q-77 0 -120 61q-38 54 -38 135q0 135 90 206q82 66 221 66h174zM339 124l31 222q-14 1 -26 1q-77 0 -122 -39q-48 -41 -48 -117q0 -41 18 -68q22 -31 61 -31q43 0 86 32z" />
    <glyph glyph-name="r" unicode="r" horiz-adv-x="365" 
d="M222 454l-10 -65l2 -2q61 75 110 75q38 0 81 -50l-63 -125q-33 49 -64 49q-23 0 -49 -23q-22 -19 -33 -43l-38 -270h-135l64 454h135z" />
    <glyph glyph-name="s" unicode="s" horiz-adv-x="375" 
d="M359 421l-11 -107q-74 38 -131 38q-30 0 -30 -20q0 -19 39 -49q59 -45 73 -60q39 -41 39 -89q0 -67 -53 -106q-48 -36 -117 -36q-76 0 -157 41l19 101q87 -32 124 -32q44 0 44 25q0 20 -39 51q-34 27 -74 59q-39 39 -39 78q0 69 52 110q47 37 118 37q69 0 143 -41z" />
    <glyph glyph-name="t" unicode="t" horiz-adv-x="365" 
d="M277 550l-19 -96h100l-18 -100h-100l-26 -147q-3 -17 -3 -35q0 -60 40 -60q24 0 78 27v-119q-61 -29 -116 -29q-66 0 -104 41.5t-38 108.5q0 18 4 40l32 173h-92l17 100h92l16 96h137z" />
    <glyph glyph-name="u" unicode="u" 
d="M518 454l-64 -454h-135l8 51q-70 -59 -147 -59q-63 0 -98 37.5t-35 101.5q0 14 3 35l41 288h135l-34 -241q-4 -28 -4 -53q0 -68 40 -68q53 0 114 66l41 296h135z" />
    <glyph glyph-name="v" unicode="v" horiz-adv-x="458" 
d="M481 454l-246 -462h-92l-116 462h131l57 -252h2l121 252h143z" />
    <glyph glyph-name="w" unicode="w" horiz-adv-x="729" 
d="M757 454l-258 -462h-87l-49 235l-131 -235h-85l-114 462h131l52 -263h2l136 263h81l49 -263h2l129 263h142z" />
    <glyph glyph-name="x" unicode="x" horiz-adv-x="531" 
d="M552 454l-198 -232l134 -222h-148l-74 142l-117 -142h-170l215 238l-130 216h149l68 -133l105 133h166z" />
    <glyph glyph-name="y" unicode="y" horiz-adv-x="490" 
d="M510 454l-330 -684h-142l132 272l-145 412h135l89 -265l120 265h141z" />
    <glyph glyph-name="z" unicode="z" horiz-adv-x="458" 
d="M457 454l-223 -342h197l-17 -112h-413l231 342h-184l16 112h393z" />
    <glyph glyph-name="braceleft" unicode="{" horiz-adv-x="385" 
d="M29 314q63 1 88 46q19 33 19 103v79q0 96 44 139t139 43h44v-117h-6q-67 0 -83 -22q-12 -16 -12 -89q0 -98 -12 -140q-17 -60 -73 -99q56 -39 73 -98q12 -42 12 -141q0 -73 12 -89q16 -22 83 -22h6v-117h-44q-95 0 -139 43t-44 139v79q0 70 -19 103q-25 45 -88 46v114z
" />
    <glyph glyph-name="bar" unicode="|" horiz-adv-x="281" 
d="M102 -250v1000h109v-1000h-109z" />
    <glyph glyph-name="braceright" unicode="}" horiz-adv-x="385" 
d="M356 200q-63 -1 -88 -46q-19 -33 -19 -103v-79q0 -96 -44 -139t-139 -43h-44v117h6q67 0 83 22q12 16 12 89q0 99 12 141q17 59 73 98q-56 39 -73 99q-12 42 -12 140q0 73 -12 89q-16 22 -83 22h-6v117h44q95 0 139 -43t44 -139v-79q0 -70 19 -103q25 -45 88 -46v-114z
" />
    <glyph glyph-name="asciitilde" unicode="~" horiz-adv-x="584" 
d="M29 175v0v131q88 72 160 72q42 0 125.5 -39t119.5 -39q60 0 146 74v-130q-29 -29 -73 -50q-47 -22 -85 -22q-41 0 -127 39.5t-114 39.5q-61 0 -152 -76z" />
    <glyph glyph-name="euro" horiz-adv-x="498" 
d="M522 633l-23 -156l-48 6q0 157 -94 157q-103 0 -161 -211h172l-21 -48h-164q-6 -24 -16 -73h147l-21 -47h-134q-6 -41 -6 -74q0 -56 21 -91q26 -43 78 -43q58 0 101 68q24 38 51 119l55 -10l-54 -188q-77 -53 -159 -53q-111 0 -166 84q-47 71 -47 188h-74l21 47h56
q3 25 12 73h-66l21 48h59q41 112 108 183q83 88 187 88q94 0 165 -67z" />
    <glyph glyph-name="exclamdown" unicode="&#xa1;" horiz-adv-x="260" 
d="M107 248h80l-17 -304q-7 -122 -38 -153q-21 -21 -51 -21q-64 0 -64 73q0 44 18 116zM165 301q-34 0 -59 25t-25 59q0 35 24.5 59.5t59.5 24.5t59.5 -24.5t24.5 -59.5t-24.5 -59.5t-59.5 -24.5z" />
    <glyph glyph-name="cent" unicode="&#xa2;" horiz-adv-x="469" 
d="M463 633l-57 -177q31 -5 44 -8l-18 -121q-35 14 -59 17l-73 -236q65 6 125 39l-19 -134q-60 -22 -143 -22l-57 -178h-66l59 187q-76 17 -120.5 73t-44.5 134q0 115 90 187q84 68 202 68h18l54 171h65zM236 116l71 229q-57 -8 -94 -44t-37 -92q0 -67 60 -93z" />
    <glyph glyph-name="sterling" unicode="&#xa3;" horiz-adv-x="542" 
d="M518 663l-13 -123q-39 24 -69 24q-69 0 -102 -108l-27 -89h85l-18 -106h-99l-39 -131q28 5 53 5q21 0 64 -8.5t65 -8.5q56 0 100 25l-26 -138q-32 -14 -67 -14q-38 0 -113 11.5t-113 11.5q-65 0 -130 -23h-13l79 270h-75l15 106h92l20 68q75 256 232 256q58 0 99 -28z
" />
    <glyph glyph-name="currency" unicode="&#xa4;" 
d="M455 87l-66 66q-45 -28 -105 -28q-58 0 -104 27l-65 -65l-85 85l65 65q-27 43 -27 105q0 54 27 105l-65 65l83 83l64 -64q60 27 107 27q58 0 105 -27l65 65l85 -85l-65 -65q27 -49 27 -104q0 -53 -28 -107l65 -65zM185 342q0 -41 29 -70.5t70 -29.5t70.5 29.5t29.5 70.5
t-29.5 70t-70.5 29t-70 -29t-29 -70z" />
    <glyph glyph-name="yen" unicode="&#xa5;" 
d="M291 0h-138l28 136h-182l19 94h183l13 62h-182l20 94h132l-98 330h141l71 -307h2l182 307h160l-227 -330h137l-20 -94h-180l-13 -62h180l-19 -94h-181z" />
    <glyph glyph-name="brokenbar" unicode="&#xa6;" horiz-adv-x="281" 
d="M86 -175v350h109v-350h-109zM86 325v350h109v-350h-109z" />
    <glyph glyph-name="section" unicode="&#xa7;" 
d="M525 534l-120 -21q-2 68 -71 68q-26 0 -46 -14t-20 -39q0 -34 62 -79q101 -73 116 -88q62 -60 62 -135q0 -64 -33 -108q-29 -38 -90 -72q41 -59 41 -109q0 -82 -65 -127q-57 -40 -143 -40q-188 0 -193 159l114 31q7 -74 77 -74t70 53q0 38 -63 85q-109 81 -117 89
q-63 61 -63 137q0 110 132 174q-38 58 -38 107q0 81 68 124q57 36 143 36q172 0 177 -157zM241 354q-69 -42 -69 -90q0 -38 42 -71q35 -26 105 -79q62 34 62 91q0 45 -45 80q-4 4 -95 69z" />
    <glyph glyph-name="dieresis" unicode="&#xa8;" horiz-adv-x="333" 
d="M307 663q27 0 46 -19t19 -46t-19 -46.5t-46 -19.5t-46.5 19.5t-19.5 46.5t19.5 46t46.5 19zM105 663q27 0 46 -19t19 -46t-19 -46.5t-46 -19.5t-46.5 19.5t-19.5 46.5t19.5 46t46.5 19z" />
    <glyph glyph-name="copyright" unicode="&#xa9;" horiz-adv-x="740" 
d="M460 301l79 -27q-38 -126 -164 -126q-89 0 -141 59q-48 55 -48 146q0 94 48 150q50 61 142 61q120 0 163 -119l-79 -19q-26 68 -87 68q-101 0 -101 -138q0 -57 20 -93q25 -46 77 -46q67 0 91 84zM370 730q156 0 265 -109t109 -265t-109 -265t-265 -109t-265 109t-109 265
t109 265t265 109zM370 656q-125 0 -212.5 -87.5t-87.5 -212.5t87.5 -213t212.5 -88t213 88t88 213t-88 212.5t-213 87.5z" />
    <glyph glyph-name="ordfeminine" unicode="&#xaa;" horiz-adv-x="365" 
d="M392 682l-44 -270h-93l3 18q-35 -22 -78 -22q-49 0 -78 34t-29 84q0 85 69 129q57 36 148 36q52 0 102 -9zM267 494l17 124h-18q-44 0 -70 -26t-26 -70q0 -47 38 -47q28 0 59 19z" />
    <glyph glyph-name="guillemotleft" unicode="&#xab;" horiz-adv-x="542" 
d="M572 461l-164 -230l67 -231h-113l-73 255l151 206h132zM299 461l-164 -230l67 -231h-113l-73 255l151 206h132z" />
    <glyph glyph-name="logicalnot" unicode="&#xac;" horiz-adv-x="584" 
d="M426 121v213h-371v128h499v-341h-128z" />
    <glyph glyph-name="sfthyphen" unicode="&#xad;" horiz-adv-x="338" 
d="M8 174l33 122h246l-33 -122h-246z" />
    <glyph glyph-name="registered" unicode="&#xae;" horiz-adv-x="740" 
d="M546 156h-99l-32 65q-23 47 -54 78q-20 20 -65 20h-15v-163h-80v397h196q56 0 90.5 -28t34.5 -83q0 -47 -29.5 -76t-77.5 -35v-2q30 -10 51 -38q8 -10 34 -55zM281 382h83q73 0 73 55q0 54 -82 54h-74v-109zM370 730q156 0 265 -109t109 -265t-109 -265t-265 -109
t-265 109t-109 265t109 265t265 109zM370 656q-125 0 -212.5 -87.5t-87.5 -212.5t87.5 -213t212.5 -88t213 88t88 213t-88 212.5t-213 87.5z" />
    <glyph glyph-name="macron" unicode="&#xaf;" horiz-adv-x="333" 
d="M413 648l-29 -100h-387l29 100h387z" />
    <glyph glyph-name="macron" unicode="&#x2c9;" horiz-adv-x="333" 
d="M413 648l-29 -100h-387l29 100h387z" />
    <glyph glyph-name="degree" unicode="&#xb0;" horiz-adv-x="396" 
d="M385 572q0 -65 -45.5 -110.5t-110.5 -45.5q-64 0 -110 46t-46 110q0 65 45.5 110.5t110.5 45.5t110.5 -45.5t45.5 -110.5zM299 572q0 29 -20.5 49.5t-49.5 20.5t-49.5 -20.5t-20.5 -49.5t20.5 -49.5t49.5 -20.5t49.5 20.5t20.5 49.5z" />
    <glyph glyph-name="plusminus" unicode="&#xb1;" horiz-adv-x="584" 
d="M55 0v128h500v-128h-500zM55 360v128h186v186h128v-186h186v-128h-186v-186h-128v186h-186z" />
    <glyph glyph-name="twosuperior" unicode="&#xb2;" horiz-adv-x="323" 
d="M294 407l-11 -75h-245l4 16q169 191 169 237q0 32 -35 32t-93 -42l12 87q44 29 96 29q48 0 81 -24q37 -27 37 -73q0 -42 -41 -101q-17 -24 -71 -86h97z" />
    <glyph glyph-name="threesuperior" unicode="&#xb3;" horiz-adv-x="323" 
d="M82 589l12 82q54 20 101 20q50 0 86 -22q43 -25 43 -72q0 -64 -64 -85q43 -26 43 -73q0 -56 -52 -87q-44 -25 -104 -25q-48 0 -107 24l11 74q57 -27 94 -27q22 0 38 10q20 12 20 33q0 40 -58 40q-20 0 -37 -4l10 76q32 -7 51 -7q59 0 59 40q0 34 -45 34q-40 0 -101 -31z
" />
    <glyph glyph-name="acute" unicode="&#xb4;" horiz-adv-x="333" 
d="M116 504l89 172h161l-177 -172h-73z" />
    <glyph glyph-name="mu" unicode="&#xb5;" horiz-adv-x="615" 
d="M143 454h133l-59 -247q-6 -25 -6 -45q0 -81 85 -81q91 0 118 111l64 262h133l-109 -454h-120l11 42l-2 2q-48 -53 -110 -53q-75 0 -102 59h-2l-54 -225h-133z" />
    <glyph glyph-name="mu" unicode="&#x3bc;" horiz-adv-x="615" 
d="M143 454h133l-59 -247q-6 -25 -6 -45q0 -81 85 -81q91 0 118 111l64 262h133l-109 -454h-120l11 42l-2 2q-48 -53 -110 -53q-75 0 -102 59h-2l-54 -225h-133z" />
    <glyph glyph-name="paragraph" unicode="&#xb6;" 
d="M310 -197h-119v511q-89 7 -140.5 58.5t-51.5 139.5q0 97 61 152q58 52 157 52h334v-128h-55v-785h-119v785h-67v-785z" />
    <glyph glyph-name="ch270" unicode="&#xb7;" horiz-adv-x="249" 
d="M38 348q0 34 23 57t57 23t57.5 -23t23.5 -57t-23.5 -57.5t-57.5 -23.5t-57 23.5t-23 57.5z" />
    <glyph glyph-name="ch270" unicode="&#x2219;" horiz-adv-x="249" 
d="M38 348q0 34 23 57t57 23t57.5 -23t23.5 -57t-23.5 -57.5t-57.5 -23.5t-57 23.5t-23 57.5z" />
    <glyph glyph-name="cedilla" unicode="&#xb8;" horiz-adv-x="333" 
d="M192 9l-10 -32q53 -14 53 -67q0 -44 -38 -66q-30 -18 -78 -18q-44 0 -69 10l10 45q20 -5 45 -5q53 0 53 32q0 30 -43 32l31 69h46z" />
    <glyph glyph-name="onesuperior" unicode="&#xb9;" horiz-adv-x="323" 
d="M270 687l-58 -355h-95l58 355h95z" />
    <glyph glyph-name="ordmasculine" unicode="&#xba;" horiz-adv-x="375" 
d="M394 562q0 -68 -50.5 -111t-119.5 -43q-61 0 -105 34q-48 38 -48 97q0 66 55 111q51 41 119 41q61 0 103 -33q46 -36 46 -96zM294 564q0 56 -53 56q-31 0 -50.5 -26.5t-19.5 -59.5q0 -23 15 -39t38 -16q31 0 51 28q19 25 19 57z" />
    <glyph glyph-name="guillemotright" unicode="&#xbb;" horiz-adv-x="542" 
d="M243 0l164 230l-67 231h113l73 -255l-151 -206h-132zM-30 0l164 230l-67 231h113l73 -255l-151 -206h-132z" />
    <glyph glyph-name="onequarter" unicode="&#xbc;" horiz-adv-x="844" 
d="M720 360l-39 -221h46l-8 -59h-45l-12 -80h-95l12 80h-136v67l201 213h76zM601 225l-79 -86h64l17 84zM269 687l-58 -355h-95l58 355h95zM662 691l-479 -718h-88l479 718h88z" />
    <glyph glyph-name="onehalf" unicode="&#xbd;" horiz-adv-x="844" 
d="M718 75l-11 -75h-245l4 16q169 191 169 237q0 32 -35 32t-93 -42l12 87q44 29 96 29q48 0 81 -24q37 -27 37 -73q0 -42 -41 -101q-17 -24 -71 -86h97zM644 691l-479 -718h-88l479 718h88zM251 687l-58 -355h-95l58 355h95z" />
    <glyph glyph-name="threequarters" unicode="&#xbe;" horiz-adv-x="844" 
d="M703 691l-479 -718h-88l479 718h88zM87 589l12 82q54 20 101 20q50 0 86 -22q43 -25 43 -72q0 -64 -64 -85q43 -26 43 -73q0 -56 -52 -87q-44 -25 -104 -25q-48 0 -107 24l11 74q57 -27 94 -27q22 0 38 10q20 12 20 33q0 40 -58 40q-20 0 -37 -4l10 76q32 -7 51 -7
q59 0 59 40q0 34 -45 34q-40 0 -101 -31zM761 360l-39 -221h46l-8 -59h-45l-12 -80h-95l12 80h-136v67l201 213h76zM642 225l-79 -86h64l17 84z" />
    <glyph glyph-name="questiondown" unicode="&#xbf;" horiz-adv-x="323" 
d="M141 245h106q-1 -69 -41 -131q-12 -19 -73 -90q-39 -46 -39 -75q0 -23 17 -35.5t40 -12.5q49 0 130 48l-19 -132q-75 -47 -144 -47q-70 0 -117 46t-47 115t43 123l85 85q49 50 59 106zM198 301q-34 0 -59 25t-25 59q0 35 24.5 59.5t59.5 24.5t59.5 -24.5t24.5 -59.5
t-24.5 -59.5t-59.5 -24.5z" />
    <glyph glyph-name="Agrave" unicode="&#xc0;" horiz-adv-x="625" 
d="M461 691l120 -691h-149l-21 149h-212l-66 -149h-160l334 691h154zM361 548l-120 -302h158l-36 302h-2zM381 733l-260 142h141z" />
    <glyph glyph-name="Aacute" unicode="&#xc1;" horiz-adv-x="625" 
d="M461 691l120 -691h-149l-21 149h-212l-66 -149h-160l334 691h154zM361 548l-120 -302h158l-36 302h-2zM382 732l119 142h141z" />
    <glyph glyph-name="Acircumflex" unicode="&#xc2;" horiz-adv-x="625" 
d="M461 691l120 -691h-149l-21 149h-212l-66 -149h-160l334 691h154zM361 548l-120 -302h158l-36 302h-2zM451 851l90 -134h-74l-64 82l-99 -82h-82l141 134h88z" />
    <glyph glyph-name="Atilde" unicode="&#xc3;" horiz-adv-x="625" 
d="M461 691l120 -691h-149l-21 149h-212l-66 -149h-160l334 691h154zM361 548l-120 -302h158l-36 302h-2zM253 732v59l42 36q18 15 38 15q19 0 63.5 -24.5t59.5 -24.5t73 52v-60q-51 -51 -79 -51q-20 0 -65 25.5t-56 25.5q-16 0 -76 -53z" />
    <glyph glyph-name="Adieresis" unicode="&#xc4;" horiz-adv-x="625" 
d="M461 691l120 -691h-149l-21 149h-212l-66 -149h-160l334 691h154zM361 548l-120 -302h158l-36 302h-2zM488 887q27 0 46 -19t19 -46t-19 -46.5t-46 -19.5t-46.5 19.5t-19.5 46.5t19.5 46t46.5 19zM286 887q27 0 46 -19t19 -46t-19 -46.5t-46 -19.5t-46.5 19.5t-19.5 46.5
t19.5 46t46.5 19z" />
    <glyph glyph-name="Aring" unicode="&#xc5;" horiz-adv-x="625" 
d="M461 691l120 -691h-149l-21 149h-212l-66 -149h-160l334 691h154zM361 548l-120 -302h158l-36 302h-2zM402 915q41 0 70.5 -29.5t29.5 -70.5t-29.5 -70.5t-70.5 -29.5t-70.5 29.5t-29.5 70.5t29.5 70.5t70.5 29.5zM402 870q-23 0 -39 -16t-16 -39q0 -22 16.5 -38.5
t38.5 -16.5q23 0 39 16t16 39t-16 39t-39 16z" />
    <glyph glyph-name="AE" unicode="&#xc6;" horiz-adv-x="990" 
d="M974 682l-13 -114h-311l-22 -160h275l-17 -114h-274l-26 -180h388l-19 -114h-530l24 169h-239l-108 -169h-167l438 682h601zM507 581h-35l-198 -311h189z" />
    <glyph glyph-name="Ccedilla" unicode="&#xc7;" horiz-adv-x="688" 
d="M651 197l-21 -152q-123 -54 -260 -54l-8 -19q53 -14 53 -67q0 -44 -38 -66q-30 -18 -78 -18q-44 0 -69 10l10 45q20 -5 45 -5q53 0 53 32q0 30 -43 32l28 61q-121 20 -193 102.5t-72 204.5q0 182 134 289q124 99 311 99q85 0 185 -25l-24 -126q-81 25 -165 25
q-148 0 -228 -93q-63 -74 -63 -172q0 -87 55 -136q52 -47 140 -47q108 0 248 80z" />
    <glyph glyph-name="Egrave" unicode="&#xc8;" horiz-adv-x="583" 
d="M564 682l-16 -114h-281l-23 -161h247l-16 -114h-247l-25 -179h354l-16 -114h-499l96 682h426zM352 723l-260 142h141z" />
    <glyph glyph-name="Eacute" unicode="&#xc9;" horiz-adv-x="583" 
d="M564 682l-16 -114h-281l-23 -161h247l-16 -114h-247l-25 -179h354l-16 -114h-499l96 682h426zM352 722l119 142h141z" />
    <glyph glyph-name="Ecircumflex" unicode="&#xca;" horiz-adv-x="583" 
d="M564 682l-16 -114h-281l-23 -161h247l-16 -114h-247l-25 -179h354l-16 -114h-499l96 682h426zM420 836l90 -134h-74l-64 82l-99 -82h-82l141 134h88z" />
    <glyph glyph-name="Edieresis" unicode="&#xcb;" horiz-adv-x="583" 
d="M564 682l-16 -114h-281l-23 -161h247l-16 -114h-247l-25 -179h354l-16 -114h-499l96 682h426zM467 887q27 0 46 -19t19 -46t-19 -46.5t-46 -19.5t-46.5 19.5t-19.5 46.5t19.5 46t46.5 19zM265 887q27 0 46 -19t19 -46t-19 -46.5t-46 -19.5t-46.5 19.5t-19.5 46.5t19.5 46
t46.5 19z" />
    <glyph glyph-name="Igrave" unicode="&#xcc;" horiz-adv-x="302" 
d="M286 682l-96 -682h-145l96 682h145zM214 722l-260 142h141z" />
    <glyph glyph-name="Iacute" unicode="&#xcd;" horiz-adv-x="302" 
d="M286 682l-96 -682h-145l96 682h145zM214 722l119 142h141z" />
    <glyph glyph-name="Icircumflex" unicode="&#xce;" horiz-adv-x="302" 
d="M286 682l-96 -682h-145l96 682h145zM325 900l59 -160h-82l-61 91l-100 -91h-91l126 160h149z" />
    <glyph glyph-name="Idieresis" unicode="&#xcf;" horiz-adv-x="302" 
d="M286 682l-96 -682h-145l96 682h145zM327 887q27 0 46 -19t19 -46t-19 -46.5t-46 -19.5t-46.5 19.5t-19.5 46.5t19.5 46t46.5 19zM125 887q27 0 46 -19t19 -46t-19 -46.5t-46 -19.5t-46.5 19.5t-19.5 46.5t19.5 46t46.5 19z" />
    <glyph glyph-name="Eth" unicode="&#xd0;" horiz-adv-x="750" 
d="M136 682h227q186 0 278 -110q74 -88 74 -222q0 -146 -87 -245q-92 -105 -235 -105h-352l40 289h-72l14 104h73zM265 568l-24 -175h176l-15 -104h-176l-24 -175h136q106 0 166.5 66t60.5 172q0 100 -64 158t-166 58h-70z" />
    <glyph glyph-name="Ntilde" unicode="&#xd1;" horiz-adv-x="781" 
d="M767 682l-95 -682h-138l-280 462h-2l-64 -462h-145l96 682h145l275 -445h2l61 445h145zM364 739v0h-64q0 147 97 147q30 0 76 -24t55 -24q31 0 38 48h64q1 -59 -19 -98q-25 -50 -79 -50q-24 0 -71.5 24t-58.5 24q-35 0 -38 -47z" />
    <glyph glyph-name="Ograve" unicode="&#xd2;" horiz-adv-x="833" 
d="M797 380q0 -175 -109 -282t-284 -107q-145 0 -242 85q-102 88 -102 232q0 171 116 279q112 104 285 104q145 0 238 -82q98 -86 98 -229zM647 370q0 85 -55.5 140t-140.5 55q-102 0 -171.5 -73.5t-69.5 -176.5q0 -88 53.5 -143t141.5 -55q105 0 174 75q68 72 68 178z
M462 732l-260 142h141z" />
    <glyph glyph-name="Oacute" unicode="&#xd3;" horiz-adv-x="833" 
d="M797 380q0 -175 -109 -282t-284 -107q-145 0 -242 85q-102 88 -102 232q0 171 116 279q112 104 285 104q145 0 238 -82q98 -86 98 -229zM647 370q0 85 -55.5 140t-140.5 55q-102 0 -171.5 -73.5t-69.5 -176.5q0 -88 53.5 -143t141.5 -55q105 0 174 75q68 72 68 178z
M462 732l119 142h141z" />
    <glyph glyph-name="Ocircumflex" unicode="&#xd4;" horiz-adv-x="833" 
d="M797 380q0 -175 -109 -282t-284 -107q-145 0 -242 85q-102 88 -102 232q0 171 116 279q112 104 285 104q145 0 238 -82q98 -86 98 -229zM647 370q0 85 -55.5 140t-140.5 55q-102 0 -171.5 -73.5t-69.5 -176.5q0 -88 53.5 -143t141.5 -55q105 0 174 75q68 72 68 178z
M523 839l90 -134h-74l-64 82l-99 -82h-82l141 134h88z" />
    <glyph glyph-name="Otilde" unicode="&#xd5;" horiz-adv-x="833" 
d="M797 380q0 -175 -109 -282t-284 -107q-145 0 -242 85q-102 88 -102 232q0 171 116 279q112 104 285 104q145 0 238 -82q98 -86 98 -229zM647 370q0 85 -55.5 140t-140.5 55q-102 0 -171.5 -73.5t-69.5 -176.5q0 -88 53.5 -143t141.5 -55q105 0 174 75q68 72 68 178z
M312 732v59l42 36q18 15 38 15q19 0 63.5 -24.5t59.5 -24.5t73 52v-60q-51 -51 -79 -51q-20 0 -65 25.5t-56 25.5q-16 0 -76 -53z" />
    <glyph glyph-name="Odieresis" unicode="&#xd6;" horiz-adv-x="833" 
d="M797 380q0 -174 -109.5 -281.5t-283.5 -107.5q-146 0 -242 85q-102 89 -102 232q0 170 116 278q114 105 285 105q144 0 238 -82q98 -87 98 -229zM647 370q0 85 -55.5 140t-140.5 55q-101 0 -171 -74t-70 -176q0 -88 54 -143t141 -55q104 0 173 74t69 179zM592 887
q27 0 46 -19t19 -46t-19 -46.5t-46 -19.5t-46.5 19.5t-19.5 46.5t19.5 46t46.5 19zM390 887q27 0 46 -19t19 -46t-19 -46.5t-46 -19.5t-46.5 19.5t-19.5 46.5t19.5 46t46.5 19z" />
    <glyph glyph-name="multiply" unicode="&#xd7;" horiz-adv-x="584" 
d="M67 205l148 148l-148 148l90 90l148 -148l148 148l90 -90l-148 -148l148 -148l-90 -90l-148 148l-148 -148z" />
    <glyph glyph-name="Oslash" unicode="&#xd8;" horiz-adv-x="833" 
d="M244 196l308 344q-52 25 -101 25q-101 0 -171 -74t-70 -176q0 -71 34 -119zM199 48l-91 -101l-47 44l87 97q-88 88 -88 220q0 170 116 278q114 105 285 105q105 0 185 -46l57 64l68 -27l-69 -76q95 -89 95 -226q0 -174 -109.5 -281.5t-283.5 -107.5q-115 0 -205 57z
M604 497l-313 -347q55 -33 114 -33q104 0 173 74t69 179q0 72 -43 127z" />
    <glyph glyph-name="Ugrave" unicode="&#xd9;" horiz-adv-x="750" 
d="M744 682l-60 -425q-38 -266 -314 -266q-133 0 -212 57q-90 64 -90 192q0 26 4 54l56 388h145l-55 -386q-3 -21 -3 -37q0 -69 44 -106q41 -36 111 -36q72 0 116.5 40t54.5 112l58 413h145zM442 692l-260 142h141z" />
    <glyph glyph-name="Uacute" unicode="&#xda;" horiz-adv-x="750" 
d="M744 682l-60 -425q-38 -266 -314 -266q-133 0 -212 57q-90 64 -90 192q0 26 4 54l56 388h145l-55 -386q-3 -21 -3 -37q0 -69 44 -106q41 -36 111 -36q72 0 116.5 40t54.5 112l58 413h145zM442 692l119 142h141z" />
    <glyph glyph-name="Ucircumflex" unicode="&#xdb;" horiz-adv-x="750" 
d="M744 682l-60 -425q-38 -266 -314 -266q-134 0 -212 57q-90 64 -90 192q0 26 4 54l56 388h145l-55 -386q-3 -21 -3 -37q0 -69 43 -105.5t112 -36.5q72 0 116.5 40t54.5 112l58 413h145zM549 900l59 -160h-82l-61 91l-100 -91h-91l126 160h149z" />
    <glyph glyph-name="Udieresis" unicode="&#xdc;" horiz-adv-x="750" 
d="M744 682l-60 -425q-38 -266 -314 -266q-134 0 -212 57q-90 64 -90 192q0 26 4 54l56 388h145l-55 -386q-3 -21 -3 -37q0 -69 43 -105.5t112 -36.5q72 0 116.5 40t54.5 112l58 413h145zM551 887q27 0 46 -19t19 -46t-19 -46.5t-46 -19.5t-46.5 19.5t-19.5 46.5t19.5 46
t46.5 19zM349 887q27 0 46 -19t19 -46t-19 -46.5t-46 -19.5t-46.5 19.5t-19.5 46.5t19.5 46t46.5 19z" />
    <glyph glyph-name="Yacute" unicode="&#xdd;" horiz-adv-x="563" 
d="M618 682l-257 -396l-40 -286h-145l40 286l-144 396h145l88 -263l158 263h155zM339 692l119 142h141z" />
    <glyph glyph-name="Thorn" unicode="&#xde;" horiz-adv-x="583" 
d="M141 682h145l-18 -129h78q98 0 160 -51q66 -55 66 -152q0 -110 -71 -168q-65 -54 -177 -54h-115l-18 -128h-145zM253 445l-29 -210h61q59 0 95 24q42 29 42 85q0 101 -134 101h-35z" />
    <glyph glyph-name="germandbls" unicode="&#xdf;" 
d="M27 0l61 434q21 147 69 195q62 62 162 62q85 0 137 -43q57 -46 57 -129q0 -109 -104 -146q95 -49 95 -159q0 -95 -60 -159t-154 -64q-29 0 -57 8l15 108q17 -6 31 -6q46 0 69 46q18 36 18 87q0 39 -19 66q-21 31 -58 31h-10l14 99h7q38 0 61.5 24t23.5 62
q0 32 -19.5 53.5t-51.5 21.5q-45 0 -64 -41q-14 -30 -27 -120l-61 -430h-135z" />
    <glyph glyph-name="agrave" unicode="&#xe0;" 
d="M521 447l-63 -447h-135l6 42q-64 -51 -131 -51q-75 0 -119 62q-40 55 -40 133q0 138 99 211q88 65 230 65q77 0 153 -15zM342 132l30 216q-15 2 -29 2q-93 0 -135 -66q-29 -45 -29 -105q0 -87 66 -87q49 0 97 40zM368 512l-234 127h127z" />
    <glyph glyph-name="aacute" unicode="&#xe1;" 
d="M521 447l-63 -447h-135l6 42q-64 -51 -131 -51q-75 0 -119 62q-40 55 -40 133q0 138 99 211q88 65 230 65q77 0 153 -15zM342 132l30 216q-15 2 -29 2q-93 0 -135 -66q-29 -45 -29 -105q0 -87 66 -87q49 0 97 40zM368 512l107 127h127z" />
    <glyph glyph-name="acircumflex" unicode="&#xe2;" 
d="M521 447l-63 -447h-135l6 42q-64 -51 -131 -51q-75 0 -119 62q-40 55 -40 133q0 138 99 211q88 65 230 65q77 0 153 -15zM342 132l30 216q-15 2 -29 2q-93 0 -135 -66q-29 -45 -29 -105q0 -87 66 -87q49 0 97 40zM435 610l81 -120h-67l-57 74l-89 -74h-74l127 120h79z
" />
    <glyph glyph-name="atilde" unicode="&#xe3;" 
d="M521 447l-63 -447h-135l6 42q-64 -51 -131 -51q-75 0 -119 62q-40 55 -40 133q0 138 99 211q88 65 230 65q77 0 153 -15zM342 132l30 216q-15 2 -29 2q-93 0 -135 -66q-29 -45 -29 -105q0 -87 66 -87q49 0 97 40zM250 511v53q54 46 72 46q17 0 57 -22t54 -22q13 0 65 46
v-54q-46 -46 -71 -46q-18 0 -58 23t-51 23q-14 0 -68 -47z" />
    <glyph glyph-name="adieresis" unicode="&#xe4;" 
d="M521 447l-63 -447h-135l6 42q-64 -51 -131 -51q-75 0 -119 62q-40 55 -40 133q0 137 98 210q89 66 231 66q77 0 153 -15zM342 132l30 216q-15 2 -29 2q-93 0 -135 -66q-29 -45 -29 -105q0 -87 66 -87q49 0 97 40zM417 663q27 0 46 -19t19 -46t-19 -46.5t-46 -19.5
t-46.5 19.5t-19.5 46.5t19.5 46t46.5 19zM215 663q27 0 46 -19t19 -46t-19 -46.5t-46 -19.5t-46.5 19.5t-19.5 46.5t19.5 46t46.5 19z" />
    <glyph glyph-name="aring" unicode="&#xe5;" 
d="M521 447l-63 -447h-135l6 42q-64 -51 -131 -51q-75 0 -119 62q-40 55 -40 133q0 137 98 210q89 66 231 66q77 0 153 -15zM342 132l30 216q-15 2 -29 2q-93 0 -135 -66q-29 -45 -29 -105q0 -87 66 -87q49 0 97 40zM331 691q41 0 70.5 -29.5t29.5 -70.5t-29.5 -70.5
t-70.5 -29.5t-70.5 29.5t-29.5 70.5t29.5 70.5t70.5 29.5zM331 646q-23 0 -39 -16t-16 -39q0 -22 16.5 -38.5t38.5 -16.5q23 0 39 16t16 39t-16 39t-39 16z" />
    <glyph glyph-name="ae" unicode="&#xe6;" horiz-adv-x="688" 
d="M649 207h-279q-1 -9 -1 -18q0 -46 30 -72t77 -26q49 0 149 43l-15 -108q-61 -35 -161 -35q-97 0 -169 69q-80 -69 -158 -69q-53 0 -89 29q-40 32 -40 83q0 132 253 169q6 24 6 39q0 41 -46 41q-40 0 -135 -43l16 111q68 42 145 42q71 0 116 -42q56 42 128 42
q80 0 131 -53.5t51 -133.5q0 -33 -9 -68zM217 101l16 88q-106 -17 -106 -71q0 -37 36 -37q21 0 54 20zM377 285h155q1 9 1 17q0 60 -63 60q-67 0 -93 -77z" />
    <glyph glyph-name="ccedilla" unicode="&#xe7;" horiz-adv-x="469" 
d="M422 131l-16 -123q-66 -17 -146 -17l-8 -19q53 -14 53 -67q0 -44 -38 -66q-30 -18 -78 -18q-44 0 -69 10l10 45q20 -5 45 -5q53 0 53 32q0 30 -43 32l28 62q-82 15 -130 72.5t-48 140.5q0 114 91 185q83 67 200 67q75 0 125 -16l-17 -122q-48 20 -98 20q-64 0 -111 -37
q-50 -39 -50 -102q0 -104 118 -104q53 0 129 30z" />
    <glyph glyph-name="egrave" unicode="&#xe8;" horiz-adv-x="510" 
d="M468 208h-297q-5 -52 23.5 -84.5t80.5 -32.5q55 0 168 46l-24 -113q-88 -33 -158 -33q-103 0 -164.5 59t-61.5 162q0 105 70.5 177.5t175.5 72.5q88 0 141 -51.5t53 -139.5q0 -30 -7 -63zM184 286h159q1 9 1 17q0 30 -18 48t-48 18q-65 0 -94 -83zM281 512l-234 127h127z
" />
    <glyph glyph-name="eacute" unicode="&#xe9;" horiz-adv-x="510" 
d="M468 208h-297q-5 -52 23.5 -84.5t80.5 -32.5q55 0 168 46l-24 -113q-88 -33 -158 -33q-103 0 -164.5 59t-61.5 162q0 105 70.5 177.5t175.5 72.5q88 0 141 -51.5t53 -139.5q0 -30 -7 -63zM184 286h159q1 9 1 17q0 30 -18 48t-48 18q-65 0 -94 -83zM281 512l107 127h127z
" />
    <glyph glyph-name="ecircumflex" unicode="&#xea;" horiz-adv-x="510" 
d="M468 208h-297q-5 -52 23.5 -84.5t80.5 -32.5q55 0 168 46l-24 -113q-88 -33 -158 -33q-103 0 -164.5 59t-61.5 162q0 105 70.5 177.5t175.5 72.5q88 0 141 -51.5t53 -139.5q0 -30 -7 -63zM184 286h159q1 9 1 17q0 30 -18 48t-48 18q-65 0 -94 -83zM338 601l81 -120h-67
l-57 74l-89 -74h-74l127 120h79z" />
    <glyph glyph-name="edieresis" unicode="&#xeb;" horiz-adv-x="510" 
d="M468 208h-297q-5 -52 23.5 -84.5t80.5 -32.5q55 0 168 46l-24 -113q-88 -33 -158 -33q-103 0 -164.5 59.5t-61.5 161.5q0 104 71 177t175 73q88 0 141 -51.5t53 -139.5q0 -30 -7 -63zM184 286h159q1 9 1 17q0 30 -18 48t-48 18q-65 0 -94 -83zM396 663q27 0 46 -19
t19 -46t-19 -46.5t-46 -19.5t-46.5 19.5t-19.5 46.5t19.5 46t46.5 19zM194 663q27 0 46 -19t19 -46t-19 -46.5t-46 -19.5t-46.5 19.5t-19.5 46.5t19.5 46t46.5 19z" />
    <glyph glyph-name="igrave" unicode="&#xec;" horiz-adv-x="260" 
d="M228 454l-64 -454h-135l64 454h135zM158 504l-234 127h127z" />
    <glyph glyph-name="iacute" unicode="&#xed;" horiz-adv-x="260" 
d="M228 454l-64 -454h-135l64 454h135zM157 504l107 127h127z" />
    <glyph glyph-name="icircumflex" unicode="&#xee;" horiz-adv-x="260" 
d="M228 454l-64 -454h-135l64 454h135zM269 676l59 -160h-82l-61 91l-100 -91h-91l126 160h149z" />
    <glyph glyph-name="idieresis" unicode="&#xef;" horiz-adv-x="260" 
d="M228 454l-64 -454h-135l64 454h135zM271 663q27 0 46 -19t19 -46t-19 -46.5t-46 -19.5t-46.5 19.5t-19.5 46.5t19.5 46t46.5 19zM69 663q27 0 46 -19t19 -46t-19 -46.5t-46 -19.5t-46.5 19.5t-19.5 46.5t19.5 46t46.5 19z" />
    <glyph glyph-name="eth" unicode="&#xf0;" 
d="M372 255q0 42 -25.5 69.5t-67.5 27.5q-52 0 -86 -48q-31 -44 -31 -98q0 -45 23 -73q24 -31 68 -31q57 0 90 50q29 44 29 103zM536 640l-91 -42q87 -104 87 -259q0 -140 -67 -237q-77 -110 -211 -110q-97 0 -163 58q-69 61 -69 157q0 107 81 182q78 73 186 73
q63 0 112 -42l2 2q-18 63 -71 123l-106 -49l-24 42l92 43q-14 11 -36 25l81 76q42 -19 71 -47l102 47z" />
    <glyph glyph-name="ntilde" unicode="&#xf1;" 
d="M229 454l-8 -51q77 59 155 59q123 0 123 -140q0 -19 -3 -41l-39 -281h-135l38 271q2 14 2 24q0 67 -42 67q-48 0 -114 -70l-41 -292h-135l64 454h135zM215 515v0h-64q0 147 97 147q30 0 76 -24t55 -24q31 0 38 48h64q1 -59 -19 -98q-25 -50 -79 -50q-24 0 -71.5 24
t-58.5 24q-35 0 -38 -47z" />
    <glyph glyph-name="ograve" unicode="&#xf2;" horiz-adv-x="563" 
d="M522 248q0 -111 -73.5 -184t-184.5 -73q-96 0 -162.5 62t-66.5 157q0 107 77 179.5t185 72.5q99 0 162 -57.5t63 -156.5zM382 252q0 44 -24 72t-67 28q-58 0 -91 -58q-25 -44 -25 -92q0 -41 25 -71t65 -30q54 0 87 50q30 44 30 101zM297 512l-234 127h127z" />
    <glyph glyph-name="oacute" unicode="&#xf3;" horiz-adv-x="563" 
d="M522 248q0 -111 -73.5 -184t-184.5 -73q-96 0 -162.5 62t-66.5 157q0 107 77 179.5t185 72.5q99 0 162 -57.5t63 -156.5zM382 252q0 44 -24 72t-67 28q-58 0 -91 -58q-25 -44 -25 -92q0 -41 25 -71t65 -30q54 0 87 50q30 44 30 101zM297 512l107 127h127z" />
    <glyph glyph-name="ocircumflex" unicode="&#xf4;" horiz-adv-x="563" 
d="M522 248q0 -111 -73.5 -184t-184.5 -73q-96 0 -162.5 62t-66.5 157q0 107 77 179.5t185 72.5q99 0 162 -57.5t63 -156.5zM382 252q0 44 -24 72t-67 28q-58 0 -91 -58q-25 -44 -25 -92q0 -41 25 -71t65 -30q54 0 87 50q30 44 30 101zM354 603l81 -120h-67l-57 74l-89 -74
h-74l127 120h79z" />
    <glyph glyph-name="otilde" unicode="&#xf5;" horiz-adv-x="563" 
d="M522 248q0 -111 -73.5 -184t-184.5 -73q-96 0 -162.5 62t-66.5 157q0 107 77 179.5t185 72.5q99 0 162 -57.5t63 -156.5zM382 252q0 44 -24 72t-67 28q-58 0 -91 -58q-25 -44 -25 -92q0 -41 25 -71t65 -30q54 0 87 50q30 44 30 101zM177 511v53q54 46 72 46q17 0 57 -22
t54 -22q13 0 65 46v-54q-46 -46 -71 -46q-18 0 -58 23t-51 23q-14 0 -68 -47z" />
    <glyph glyph-name="odieresis" unicode="&#xf6;" horiz-adv-x="563" 
d="M522 248q0 -110 -74 -183.5t-184 -73.5q-95 0 -162 62t-67 157q0 106 77.5 179t184.5 73q98 0 161 -57q64 -60 64 -157zM382 252q0 43 -24 71.5t-67 28.5q-58 0 -91 -58q-25 -44 -25 -92q0 -41 25 -71t65 -30q54 0 87 50q30 45 30 101zM422 663q27 0 46 -19t19 -46
t-19 -46.5t-46 -19.5t-46.5 19.5t-19.5 46.5t19.5 46t46.5 19zM220 663q27 0 46 -19t19 -46t-19 -46.5t-46 -19.5t-46.5 19.5t-19.5 46.5t19.5 46t46.5 19z" />
    <glyph glyph-name="divide" unicode="&#xf7;" horiz-adv-x="584" 
d="M305 229q30 0 51.5 -21.5t21.5 -51.5t-21.5 -51.5t-51.5 -21.5t-51.5 21.5t-21.5 51.5t21.5 51.5t51.5 21.5zM55 289v128h500v-128h-500zM305 623q30 0 51.5 -21.5t21.5 -51.5t-21.5 -51.5t-51.5 -21.5t-51.5 21.5t-21.5 51.5t21.5 51.5t51.5 21.5z" />
    <glyph glyph-name="oslash" unicode="&#xf8;" horiz-adv-x="563" 
d="M372 302l-156 -185q22 -16 49 -16q54 0 87 50q30 45 30 101q0 23 -10 50zM184 157l155 182q-17 13 -48 13q-58 0 -91 -58q-25 -44 -25 -92q0 -27 9 -45zM138 27l-65 -77l-37 33l63 74q-64 64 -64 153q0 106 77.5 179t184.5 73q73 0 121 -30l62 73l38 -31l-60 -70
q64 -59 64 -156q0 -110 -74 -183.5t-184 -73.5q-69 0 -126 36z" />
    <glyph glyph-name="ugrave" unicode="&#xf9;" 
d="M518 454l-64 -454h-135l8 51q-70 -59 -147 -59q-63 0 -98 37.5t-35 101.5q0 14 3 35l41 288h135l-34 -241q-4 -28 -4 -53q0 -68 40 -68q53 0 114 66l41 296h135zM297 462l-234 127h127z" />
    <glyph glyph-name="uacute" unicode="&#xfa;" 
d="M518 454l-64 -454h-135l8 51q-70 -59 -147 -59q-63 0 -98 37.5t-35 101.5q0 14 3 35l41 288h135l-34 -241q-4 -28 -4 -53q0 -68 40 -68q53 0 114 66l41 296h135zM297 462l107 127h127z" />
    <glyph glyph-name="ucircumflex" unicode="&#xfb;" 
d="M518 454l-64 -454h-135l8 51q-70 -59 -147 -59q-63 0 -98 37.5t-35 101.5q0 14 3 35l41 288h135l-34 -241q-4 -28 -4 -53q0 -68 40 -68q53 0 114 66l41 296h135zM415 676l59 -160h-82l-61 91l-100 -91h-91l126 160h149z" />
    <glyph glyph-name="udieresis" unicode="&#xfc;" 
d="M518 454l-64 -454h-135l8 51q-70 -59 -147 -59q-63 0 -98 37.5t-35 101.5q0 14 3 35l41 288h135l-34 -241q-4 -28 -4 -53q0 -68 40 -68q53 0 114 66l41 296h135zM417 663q27 0 46 -19t19 -46t-19 -46.5t-46 -19.5t-46.5 19.5t-19.5 46.5t19.5 46t46.5 19zM215 663
q27 0 46 -19t19 -46t-19 -46.5t-46 -19.5t-46.5 19.5t-19.5 46.5t19.5 46t46.5 19z" />
    <glyph glyph-name="yacute" unicode="&#xfd;" horiz-adv-x="490" 
d="M510 454l-330 -684h-142l132 272l-145 412h135l89 -265l120 265h141zM267 462l107 127h127z" />
    <glyph glyph-name="thorn" unicode="&#xfe;" horiz-adv-x="583" 
d="M251 356l-34 -246q21 -9 41 -9q69 0 110 47q39 44 39 113q0 101 -104 101q-24 0 -52 -6zM34 -230l128 912h135l-32 -228q40 8 83 8q89 0 144 -54.5t55 -143.5q0 -117 -83.5 -195t-201.5 -78q-25 0 -61 9l-32 -230h-135z" />
    <glyph glyph-name="ydieresis" unicode="&#xff;" horiz-adv-x="490" 
d="M510 454l-330 -684h-142l132 272l-145 412h135l89 -265l120 265h141zM386 663q27 0 46 -19t19 -46t-19 -46.5t-46 -19.5t-46.5 19.5t-19.5 46.5t19.5 46t46.5 19zM184 663q27 0 46 -19t19 -46t-19 -46.5t-46 -19.5t-46.5 19.5t-19.5 46.5t19.5 46t46.5 19z" />
    <glyph glyph-name="glyph271" unicode="&#x102;" horiz-adv-x="625" 
d="M461 691l120 -691h-149l-21 149h-212l-66 -149h-160l334 691h154zM361 548l-120 -302h158l-36 302h-2zM451 836l90 20q-6 -61 -54 -96q-44 -33 -107 -33q-135 0 -141 129l89 -20q6 -58 56 -58q51 0 67 58z" />
    <glyph glyph-name="glyph272" unicode="&#x103;" 
d="M521 447l-63 -447h-135l6 42q-64 -51 -131 -51q-75 0 -119 62q-40 55 -40 133q0 138 99 211q88 65 230 65q77 0 153 -15zM342 132l30 216q-15 2 -29 2q-93 0 -135 -66q-29 -45 -29 -105q0 -87 66 -87q49 0 97 40zM432 590l81 18q-6 -54 -47.5 -85t-97.5 -31q-57 0 -91 30
t-36 86l80 -18q6 -52 50 -52q47 0 61 52z" />
    <glyph glyph-name="Cacute" unicode="&#x106;" horiz-adv-x="711" 
d="M688 666l-24 -126q-81 25 -165 25q-148 0 -228 -93q-63 -74 -63 -172q0 -87 55 -136q52 -47 140 -47q108 0 248 80l-21 -152q-123 -54 -240 -54q-145 0 -237 83q-95 85 -95 229q0 182 134 289q124 99 311 99q85 0 185 -25zM293 759l89 172h161l-177 -172h-73z" />
    <glyph glyph-name="cacute" unicode="&#x107;" horiz-adv-x="441" 
d="M451 446l-17 -122q-54 20 -98 20q-64 0 -111 -37q-50 -39 -50 -102q0 -104 118 -104q53 0 129 30l-16 -123q-66 -17 -140 -17q-100 0 -165.5 60t-65.5 159q0 114 91 185q83 67 200 67q75 0 125 -16zM94 504l89 172h161l-177 -172h-73z" />
    <glyph glyph-name="Ccaron" unicode="&#x10c;" horiz-adv-x="711" 
d="M688 666l-24 -126q-81 25 -165 25q-148 0 -228 -93q-63 -74 -63 -172q0 -87 55 -136q52 -47 140 -47q108 0 248 80l-21 -152q-123 -54 -240 -54q-145 0 -237 83q-95 85 -95 229q0 182 134 289q124 99 311 99q85 0 185 -25zM311 771l-59 160h82l61 -91l100 91h91
l-126 -160h-149z" />
    <glyph glyph-name="ccaron" unicode="&#x10d;" horiz-adv-x="441" 
d="M451 446l-17 -122q-54 20 -98 20q-64 0 -111 -37q-50 -39 -50 -102q0 -104 118 -104q53 0 129 30l-16 -123q-66 -17 -140 -17q-100 0 -165.5 60t-65.5 159q0 114 91 185q83 67 200 67q75 0 125 -16zM112 516l-59 160h82l61 -91l100 91h91l-126 -160h-149z" />
    <glyph glyph-name="Dslash" unicode="&#x110;" horiz-adv-x="750" 
d="M136 682h227q161 0 256.5 -87t95.5 -245q0 -146 -87 -246q-91 -104 -235 -104h-352l40 289h-72l14 104h73zM265 568l-24 -175h176l-15 -104h-176l-24 -175h136q106 0 167 67q60 64 60 171q0 101 -65 160q-63 56 -165 56h-70z" />
    <glyph glyph-name="dcroat" unicode="&#x111;" horiz-adv-x="542" 
d="M332 106l33 236q-18 2 -34 2q-67 0 -110 -34q-47 -37 -47 -102q0 -53 35 -81q32 -26 86 -26q14 0 37 5zM533 577h45l-13 -70h-42l-70 -501q-87 -15 -156 -15q-112 0 -183 52q-80 58 -80 166q0 117 84 187q78 66 198 66q19 0 66 -5l7 50h-136l13 70h132q5 28 15 105h135z
" />
    <glyph glyph-name="Gbreve" unicode="&#x11e;" horiz-adv-x="767" 
d="M737 666l-17 -126q-93 25 -181 25q-136 0 -230 -61q-111 -72 -111 -200q0 -92 64 -142q58 -45 153 -45q50 0 102 13l17 121h-125l15 108h270l-49 -348q-71 -20 -212 -20q-163 0 -266 71q-119 82 -119 237q0 152 111 261q133 131 380 131q114 0 198 -25zM489 928h88
q-6 -69 -49.5 -112t-112.5 -43q-132 0 -140 155h88q6 -65 57 -65q50 0 69 65z" />
    <glyph glyph-name="gbreve" unicode="&#x11f;" horiz-adv-x="492" 
d="M506 454l-13 -100h-73q17 -37 17 -72q0 -77 -57 -123q-53 -43 -133 -43q-39 0 -47 -1q-35 -4 -35 -23q0 -18 71 -30q95 -15 132 -34q71 -35 71 -110q0 -148 -234 -148q-81 0 -135 19q-81 28 -81 93q0 67 112 102q-63 30 -63 84q0 60 92 84q-79 47 -79 131q0 78 63 127
q57 44 138 44h254zM312 298q0 65 -63 65q-74 0 -74 -100q0 -63 63 -63q74 0 74 98zM190 -43q-83 -11 -83 -53q0 -47 100 -47q106 0 106 43q0 22 -31 34q-18 7 -92 23zM289 673h88q-6 -69 -49.5 -112t-112.5 -43q-132 0 -140 155h88q6 -65 57 -65q50 0 69 65z" />
    <glyph glyph-name="glyph273" unicode="&#x128;" horiz-adv-x="302" 
d="M286 682l-96 -682h-145l96 682h145zM83 722v59l42 36q18 15 38 15q19 0 63.5 -24.5t59.5 -24.5t73 52v-60q-51 -51 -79 -51q-20 0 -65 25.5t-56 25.5q-16 0 -76 -53z" />
    <glyph glyph-name="glyph274" unicode="&#x129;" horiz-adv-x="260" 
d="M228 454l-64 -454h-135l64 454h135zM37 503v53q54 46 72 46q17 0 57 -22t54 -22q13 0 65 46v-54q-46 -46 -71 -46q-18 0 -58 23t-51 23q-14 0 -68 -47z" />
    <glyph glyph-name="Idotaccent" unicode="&#x130;" horiz-adv-x="429" 
d="M286 682l-96 -682h-145l96 682h145zM230 918q27 0 46 -19t19 -46t-19 -46.5t-46 -19.5t-46.5 19.5t-19.5 46.5t19.5 46t46.5 19z" />
    <glyph glyph-name="dotlessi" unicode="&#x131;" horiz-adv-x="260" 
d="M228 454l-64 -454h-135l64 454h135z" />
    <glyph glyph-name="Lslash" unicode="&#x141;" horiz-adv-x="531" 
d="M281 682l-31 -222l157 127l-17 -115l-156 -127l-33 -231h310l-16 -114h-455l32 230l-73 -60l17 117l73 59l47 336h145z" />
    <glyph glyph-name="lslash" unicode="&#x142;" horiz-adv-x="260" 
d="M293 500l-14 -103l-64 -52l-48 -345h-135l33 237l-52 -42l14 105l53 43l48 339h135l-33 -232z" />
    <glyph glyph-name="OE" unicode="&#x152;" horiz-adv-x="1052" 
d="M977 408l-16 -114h-259l-26 -180h363l-16 -114h-649q-144 0 -232 79q-92 82 -92 224q0 146 96 254q111 125 303 125h590l-16 -114h-283l-22 -160h259zM531 114l64 454h-113q-127 0 -203 -66q-79 -69 -79 -194q0 -194 210 -194h121z" />
    <glyph glyph-name="oe" unicode="&#x153;" horiz-adv-x="792" 
d="M754 209h-284q-2 -13 -2 -24q0 -84 108 -84q68 0 158 36l-24 -111q-72 -35 -152 -35q-95 0 -167 57q-76 -57 -147 -57q-90 0 -149 67q-56 63 -56 155q0 103 67.5 176t170.5 73q79 0 143 -58q71 58 156 58q82 0 134 -53.5t52 -135.5q0 -31 -8 -64zM480 285h155q1 8 1 16
q0 61 -64 61t-92 -77zM341 268q0 35 -17 59.5t-51 24.5q-47 0 -73 -59q-21 -46 -21 -99q0 -93 65 -93q51 0 77 62q20 46 20 105z" />
    <glyph glyph-name="Scedilla" unicode="&#x15e;" horiz-adv-x="656" 
d="M509 637l-20 -120q-34 25 -80 42q-50 18 -89 18q-38 0 -65 -18q-31 -21 -31 -57q0 -38 65 -79q102 -64 121 -82q65 -59 65 -141q0 -98 -68 -155q-63 -54 -163 -54q-133 0 -232 65l22 119q98 -70 193 -70q40 0 66 17q32 20 32 58q0 46 -65 90q-40 27 -121 81
q-65 58 -65 134q0 95 74 153q69 53 166 53q104 0 195 -54zM231 9l-10 -32q53 -14 53 -67q0 -44 -38 -66q-30 -18 -78 -18q-44 0 -69 10l10 45q20 -5 45 -5q53 0 53 32q0 30 -43 32l31 69h46z" />
    <glyph glyph-name="scedilla" unicode="&#x15f;" horiz-adv-x="383" 
d="M359 421l-11 -107q-74 38 -131 38q-30 0 -30 -20q0 -19 39 -49q59 -45 73 -60q39 -41 39 -89q0 -67 -53 -106q-48 -36 -117 -36q-76 0 -157 41l19 101q87 -32 124 -32q44 0 44 25q0 20 -39 51q-34 27 -74 59q-39 39 -39 78q0 69 52 110q47 37 118 37q69 0 143 -41zM134 9
l-10 -32q53 -14 53 -67q0 -44 -38 -66q-30 -18 -78 -18q-44 0 -69 10l10 45q20 -5 45 -5q53 0 53 32q0 30 -43 32l31 69h46z" />
    <glyph glyph-name="Scaron" unicode="&#x160;" horiz-adv-x="521" 
d="M509 637l-20 -120q-34 25 -80 42q-50 18 -89 18q-38 0 -65 -18q-31 -21 -31 -57q0 -38 65 -79q102 -64 121 -82q65 -59 65 -141q0 -98 -68 -155q-63 -54 -163 -54q-133 0 -232 65l22 119q98 -70 193 -70q40 0 66 17q32 20 32 58q0 46 -65 90q-40 27 -121 81
q-65 58 -65 134q0 95 74 153q69 53 166 53q104 0 195 -54zM263 740l-59 160h82l61 -91l100 91h91l-126 -160h-149z" />
    <glyph glyph-name="scaron" unicode="&#x161;" horiz-adv-x="375" 
d="M359 421l-11 -107q-74 38 -131 38q-30 0 -30 -20q0 -19 39 -49q59 -45 73 -60q39 -41 39 -89q0 -67 -53 -106q-48 -36 -117 -36q-76 0 -157 41l19 101q87 -32 124 -32q44 0 44 25q0 20 -39 51q-34 27 -74 59q-39 39 -39 78q0 69 52 110q47 37 118 37q69 0 143 -41z
M155 516l-59 160h82l61 -91l100 91h91l-126 -160h-149z" />
    <glyph glyph-name="ch903" unicode="&#x168;" horiz-adv-x="750" 
d="M744 682l-60 -425q-38 -266 -314 -266q-133 0 -212 57q-90 64 -90 192q0 26 4 54l56 388h145l-55 -386q-3 -21 -3 -37q0 -69 44 -106q41 -36 111 -36q72 0 116.5 40t54.5 112l58 413h145zM313 692v59l42 36q18 15 38 15q19 0 63.5 -24.5t59.5 -24.5t73 52v-60
q-51 -51 -79 -51q-20 0 -65 25.5t-56 25.5q-16 0 -76 -53z" />
    <glyph glyph-name="ch904" unicode="&#x169;" 
d="M518 454l-64 -454h-135l8 51q-70 -59 -147 -59q-63 0 -98 37.5t-35 101.5q0 14 3 35l41 288h135l-34 -241q-4 -28 -4 -53q0 -68 40 -68q53 0 114 66l41 296h135zM177 491v53q54 46 72 46q17 0 57 -22t54 -22q13 0 65 46v-54q-46 -46 -71 -46q-18 0 -58 23t-51 23
q-14 0 -68 -47z" />
    <glyph glyph-name="Ydieresis" unicode="&#x178;" horiz-adv-x="563" 
d="M618 682l-257 -396l-40 -286h-145l40 286l-144 396h145l88 -263l158 263h155zM457 887q27 0 46 -19t19 -46t-19 -46.5t-46 -19.5t-46.5 19.5t-19.5 46.5t19.5 46t46.5 19zM255 887q27 0 46 -19t19 -46t-19 -46.5t-46 -19.5t-46.5 19.5t-19.5 46.5t19.5 46t46.5 19z" />
    <glyph glyph-name="Zcaron" unicode="&#x17d;" horiz-adv-x="635" 
d="M699 682l-455 -568h339l-16 -114h-598l456 568h-331l17 114h588zM320 740l-59 160h82l61 -91l100 91h91l-126 -160h-149z" />
    <glyph glyph-name="zcaron" unicode="&#x17e;" horiz-adv-x="458" 
d="M457 454l-223 -342h197l-17 -112h-413l231 342h-184l16 112h393zM197 516l-59 160h82l61 -91l100 91h91l-126 -160h-149z" />
    <glyph glyph-name="florin" unicode="&#x192;" 
d="M135 415l18 103h98l15 83q12 69 51 99q36 28 108 28q71 0 133 -20l-27 -110q-45 13 -77 13q-31 0 -44 -17q-10 -13 -16 -48l-5 -28h101l-18 -103h-100l-85 -485q-13 -75 -49 -107.5t-111 -32.5t-137 19l28 108q47 -10 83 -10q33 0 45 26q6 12 14 56l73 426h-98z" />
    <glyph glyph-name="glyph277" unicode="&#x1a0;" horiz-adv-x="833" 
d="M647 370q0 85 -55.5 140t-140.5 55q-102 0 -171.5 -73.5t-69.5 -176.5q0 -88 53.5 -143t141.5 -55q105 0 174 75q68 72 68 178zM549 682h135q-21 18 -16 42q8 39 48 32q21 -4 31.5 -22t6.5 -39q-10 -56 -76 -70q119 -86 119 -245q0 -175 -109 -282t-284 -107
q-145 0 -242 85q-102 88 -102 232q0 171 116 279q112 104 285 104q46 0 88 -9z" />
    <glyph glyph-name="glyph278" unicode="&#x1a1;" horiz-adv-x="563" 
d="M382 252q0 44 -24 72t-67 28q-58 0 -91 -58q-25 -44 -25 -92q0 -41 25 -71t65 -30q54 0 87 50q30 44 30 101zM363 454h108q-21 18 -16 42q8 39 48 32q21 -4 31.5 -22t6.5 -39q-10 -56 -76 -70q57 -57 57 -149q0 -111 -73.5 -184t-184.5 -73q-96 0 -162.5 62t-66.5 157
q0 107 77 179.5t185 72.5q34 0 66 -8z" />
    <glyph glyph-name="glyph279" unicode="&#x1af;" horiz-adv-x="750" 
d="M728 724q8 39 48 32q21 -4 31.5 -22t6.5 -39q-10 -57 -78 -70l-52 -368q-38 -266 -314 -266q-133 0 -212 57q-90 64 -90 192q0 26 4 54l56 388h145l-55 -386q-3 -21 -3 -37q0 -69 44 -106q41 -36 111 -36q72 0 116.5 40t54.5 112l58 413h145q-21 18 -16 42z" />
    <glyph glyph-name="glyph280" unicode="&#x1b0;" 
d="M510 397l-56 -397h-135l8 51q-70 -59 -147 -59q-63 0 -98 37.5t-35 101.5q0 14 3 35l41 288h135l-34 -241q-4 -28 -4 -53q0 -68 40 -68q53 0 114 66l41 296h134q-21 18 -16 42q8 39 48 32q21 -4 31.5 -22t6.5 -39q-10 -57 -77 -70z" />
    <glyph glyph-name="circumflex" unicode="&#x2c6;" horiz-adv-x="333" 
d="M305 676l59 -160h-82l-61 91l-100 -91h-91l126 160h149z" />
    <glyph glyph-name="caron" unicode="&#x2c7;" horiz-adv-x="333" 
d="M134 516l-59 160h82l61 -91l100 91h91l-126 -160h-149z" />
    <glyph glyph-name="breve" unicode="&#x2d8;" horiz-adv-x="333" 
d="M293 673h88q-6 -69 -49.5 -112t-112.5 -43q-132 0 -140 155h88q6 -65 57 -65q50 0 69 65z" />
    <glyph glyph-name="dotaccent" unicode="&#x2d9;" horiz-adv-x="333" 
d="M203 663q27 0 46 -19t19 -46t-19 -46.5t-46 -19.5t-46.5 19.5t-19.5 46.5t19.5 46t46.5 19z" />
    <glyph glyph-name="ring" unicode="&#x2da;" horiz-adv-x="333" 
d="M221 691q41 0 70.5 -29.5t29.5 -70.5t-29.5 -70.5t-70.5 -29.5t-70.5 29.5t-29.5 70.5t29.5 70.5t70.5 29.5zM221 646q-23 0 -39 -16t-16 -39q0 -22 16.5 -38.5t38.5 -16.5q23 0 39 16t16 39t-16 39t-39 16z" />
    <glyph glyph-name="ogonek" unicode="&#x2db;" horiz-adv-x="333" 
d="M359 -43v-74q-43 -12 -78 -12q-113 0 -113 70q0 35 32 71h68q-21 -26 -21 -46q0 -32 39 -32q25 0 73 23z" />
    <glyph glyph-name="tilde" unicode="&#x2dc;" horiz-adv-x="333" 
d="M105 515v0h-64q0 147 97 147q30 0 76 -24t55 -24q31 0 38 48h64q1 -59 -19 -98q-25 -50 -79 -50q-24 0 -71.5 24t-58.5 24q-35 0 -38 -47z" />
    <glyph glyph-name="hungarumlaut" unicode="&#x2dd;" horiz-adv-x="333" 
d="M59 512l37 164h127l-103 -164h-61zM226 512l37 164h127l-103 -164h-61z" />
    <glyph glyph-name="glyph281" unicode="&#x1ea0;" horiz-adv-x="625" 
d="M461 691l120 -691h-149l-21 149h-212l-66 -149h-160l334 691h154zM361 548l-120 -302h158l-36 302h-2zM361 -80q0 -32 -23 -55t-55 -23t-55 23t-23 55t23 55t55 23t55 -23t23 -55z" />
    <glyph glyph-name="glyph282" unicode="&#x1ea1;" 
d="M521 447l-63 -447h-135l6 42q-64 -51 -131 -51q-75 0 -119 62q-40 55 -40 133q0 138 99 211q88 65 230 65q77 0 153 -15zM342 132l30 216q-15 2 -29 2q-93 0 -135 -66q-29 -45 -29 -105q0 -87 66 -87q49 0 97 40zM269 -119q0 -29 -20.5 -49.5t-49.5 -20.5t-49.5 20.5
t-20.5 49.5t20.5 49.5t49.5 20.5t49.5 -20.5t20.5 -49.5z" />
    <glyph glyph-name="glyph283" unicode="&#x1ea2;" horiz-adv-x="625" 
d="M461 691l120 -691h-149l-21 149h-212l-66 -149h-160l334 691h154zM361 548l-120 -302h158l-36 302h-2zM413 748l-61 -16q17 21 50.5 65.5t33.5 66.5q0 30 -33 31q-9 0 -23 -14l-31 -32l7 54q31 31 63 32q66 2 66 -62q0 -45 -59 -93z" />
    <glyph glyph-name="glyph284" unicode="&#x1ea3;" 
d="M521 447l-63 -447h-135l6 42q-64 -51 -131 -51q-75 0 -119 62q-40 55 -40 133q0 138 99 211q88 65 230 65q77 0 153 -15zM342 132l30 216q-15 2 -29 2q-93 0 -135 -66q-29 -45 -29 -105q0 -87 66 -87q49 0 97 40zM399 520l-61 -16q17 21 50.5 65.5t33.5 66.5q0 30 -33 31
q-9 0 -23 -14l-31 -32l7 54q31 31 63 32q66 2 66 -62q0 -45 -59 -93z" />
    <glyph glyph-name="glyph285" unicode="&#x1ea4;" horiz-adv-x="625" 
d="M461 691l120 -691h-149l-21 149h-212l-66 -149h-160l334 691h154zM361 548l-120 -302h158l-36 302h-2zM527 799l119 142h141zM451 851l90 -134h-74l-64 82l-99 -82h-82l141 134h88z" />
    <glyph glyph-name="glyph286" unicode="&#x1ea5;" 
d="M521 447l-63 -447h-135l6 42q-64 -51 -131 -51q-75 0 -119 62q-40 55 -40 133q0 138 99 211q88 65 230 65q77 0 153 -15zM342 132l30 216q-15 2 -29 2q-93 0 -135 -66q-29 -45 -29 -105q0 -87 66 -87q49 0 97 40zM503 564l107 127h127zM435 610l81 -120h-67l-57 74
l-89 -74h-74l127 120h79z" />
    <glyph glyph-name="glyph287" unicode="&#x1ea6;" horiz-adv-x="625" 
d="M270 800l-260 142h141zM581 0h-149l-21 149h-212l-66 -149h-160l334 691h154zM399 246l-36 302h-2l-120 -302h158zM451 851l90 -134h-74l-64 82l-99 -82h-82l141 134h88z" />
    <glyph glyph-name="glyph288" unicode="&#x1ea7;" 
d="M521 447l-63 -447h-135l6 42q-64 -51 -131 -51q-75 0 -119 62q-40 55 -40 133q0 138 99 211q88 65 230 65q77 0 153 -15zM342 132l30 216q-15 2 -29 2q-93 0 -135 -66q-29 -45 -29 -105q0 -87 66 -87q49 0 97 40zM273 565l-234 127h127zM436 610l81 -120h-67l-58 74
l-89 -74h-73l126 120h80z" />
    <glyph glyph-name="glyph289" unicode="&#x1ea8;" horiz-adv-x="625" 
d="M461 691l120 -691h-149l-21 149h-212l-66 -149h-160l334 691h154zM361 548l-120 -302h158l-36 302h-2zM588 815l-61 -16q17 21 50.5 65.5t33.5 66.5q0 30 -33 31q-9 0 -23 -14l-31 -32l7 54q31 31 63 32q66 2 66 -62q0 -45 -59 -93zM451 851l90 -134h-74l-64 82l-99 -82
h-82l141 134h88z" />
    <glyph glyph-name="glyph290" unicode="&#x1ea9;" 
d="M521 447l-63 -447h-135l6 42q-64 -51 -131 -51q-75 0 -119 62q-40 55 -40 133q0 138 99 211q88 65 230 65q77 0 153 -15zM342 132l30 216q-15 2 -29 2q-93 0 -135 -66q-29 -45 -29 -105q0 -87 66 -87q49 0 97 40zM568 580l-61 -16q17 21 50.5 65.5t33.5 66.5q0 30 -33 31
q-9 0 -23 -14l-31 -32l7 54q31 31 63 32q66 2 66 -62q0 -45 -59 -93zM435 611l81 -121h-66l-58 74l-89 -74h-74l127 121h79z" />
    <glyph glyph-name="glyph291" unicode="&#x1eaa;" horiz-adv-x="625" 
d="M461 691l120 -691h-149l-21 149h-212l-66 -149h-160l334 691h154zM361 548l-120 -302h158l-36 302h-2zM451 851l90 -134h-74l-64 82l-99 -82h-82l141 134h88zM253 879v59l42 36q18 15 38 15q19 0 63.5 -24.5t59.5 -24.5t73 52v-60q-51 -51 -79 -51q-20 0 -65 25.5
t-56 25.5q-16 0 -76 -53z" />
    <glyph glyph-name="glyph292" unicode="&#x1eab;" 
d="M521 447l-63 -447h-135l6 42q-64 -51 -131 -51q-75 0 -119 62q-40 55 -40 133q0 138 99 211q88 65 230 65q77 0 153 -15zM342 132l30 216q-15 2 -29 2q-93 0 -135 -66q-29 -45 -29 -105q0 -87 66 -87q49 0 97 40zM434 611l81 -121h-67l-57 74l-89 -74h-74l127 121h79z
M256 636v53q54 46 72 46q17 0 57 -22t54 -22q13 0 65 46v-54q-46 -46 -71 -46q-18 0 -58 23t-51 23q-14 0 -68 -47z" />
    <glyph glyph-name="glyph293" unicode="&#x1eac;" horiz-adv-x="625" 
d="M461 691l120 -691h-149l-21 149h-212l-66 -149h-160l334 691h154zM361 548l-120 -302h158l-36 302h-2zM451 851l90 -134h-74l-64 82l-99 -82h-82l141 134h88zM361 -80q0 -32 -23 -55t-55 -23t-55 23t-23 55t23 55t55 23t55 -23t23 -55z" />
    <glyph glyph-name="glyph294" unicode="&#x1ead;" 
d="M521 447l-63 -447h-135l6 42q-64 -51 -131 -51q-75 0 -119 62q-40 55 -40 133q0 138 99 211q88 65 230 65q77 0 153 -15zM342 132l30 216q-15 2 -29 2q-93 0 -135 -66q-29 -45 -29 -105q0 -87 66 -87q49 0 97 40zM435 610l81 -120h-67l-57 74l-89 -74h-74l127 120h79z
M269 -119q0 -29 -20.5 -49.5t-49.5 -20.5t-49.5 20.5t-20.5 49.5t20.5 49.5t49.5 20.5t49.5 -20.5t20.5 -49.5z" />
    <glyph glyph-name="glyph295" unicode="&#x1eae;" horiz-adv-x="625" 
d="M461 691l120 -691h-149l-21 149h-212l-66 -149h-160l334 691h154zM361 548l-120 -302h158l-36 302h-2zM383 856l119 142h141zM451 836l90 20q-6 -61 -54 -96q-44 -33 -107 -33q-135 0 -141 129l89 -20q6 -58 56 -58q51 0 67 58z" />
    <glyph glyph-name="glyph296" unicode="&#x1eaf;" 
d="M521 447l-63 -447h-135l6 42q-64 -51 -131 -51q-75 0 -119 62q-40 55 -40 133q0 138 99 211q88 65 230 65q77 0 153 -15zM342 132l30 216q-15 2 -29 2q-93 0 -135 -66q-29 -45 -29 -105q0 -87 66 -87q49 0 97 40zM370 608l107 128h127zM432 590l81 18q-6 -54 -47.5 -85
t-97.5 -31q-57 0 -91 30t-36 86l80 -18q6 -52 50 -52q47 0 61 52z" />
    <glyph glyph-name="glyph297" unicode="&#x1eb0;" horiz-adv-x="625" 
d="M461 691l120 -691h-149l-21 149h-212l-66 -149h-160l334 691h154zM361 548l-120 -302h158l-36 302h-2zM383 856l-260 142h141zM451 836l90 20q-6 -61 -54 -96q-44 -33 -107 -33q-135 0 -141 129l89 -20q6 -58 56 -58q51 0 67 58z" />
    <glyph glyph-name="glyph298" unicode="&#x1eb1;" 
d="M521 447l-63 -447h-135l6 42q-64 -51 -131 -51q-75 0 -119 62q-40 55 -40 133q0 138 99 211q88 65 230 65q77 0 153 -15zM342 132l30 216q-15 2 -29 2q-93 0 -135 -66q-29 -45 -29 -105q0 -87 66 -87q49 0 97 40zM371 608l-234 128h127zM432 590l81 18
q-5 -55 -46.5 -85.5t-98.5 -30.5q-121 0 -127 116l81 -18q5 -52 50 -52q46 0 60 52z" />
    <glyph glyph-name="glyph299" unicode="&#x1eb2;" horiz-adv-x="625" 
d="M461 691l120 -691h-149l-21 149h-212l-66 -149h-160l334 691h154zM361 548l-120 -302h158l-36 302h-2zM451 836l90 20q-6 -61 -54 -96q-44 -33 -107 -33q-135 0 -141 129l89 -20q6 -58 56 -58q51 0 67 58zM415 862l-61 -16q17 21 50.5 65.5t33.5 66.5q0 30 -33 31
q-9 0 -23 -14l-31 -32l7 54q31 31 63 32q66 2 66 -62q0 -45 -59 -93z" />
    <glyph glyph-name="glyph300" unicode="&#x1eb3;" 
d="M521 447l-63 -447h-135l6 42q-64 -51 -131 -51q-75 0 -119 62q-40 55 -40 133q0 138 99 211q88 65 230 65q77 0 153 -15zM342 132l30 216q-15 2 -29 2q-93 0 -135 -66q-29 -45 -29 -105q0 -87 66 -87q49 0 97 40zM432 590l81 18q-6 -54 -47.5 -85t-97.5 -31q-57 0 -91 30
t-36 86l80 -18q6 -52 50 -52q47 0 61 52zM402 618l-61 -16q17 21 50.5 65.5t33.5 66.5q0 30 -33 31q-9 0 -23 -14l-31 -32l7 54q31 31 63 32q66 2 66 -62q0 -45 -59 -93z" />
    <glyph glyph-name="glyph301" unicode="&#x1eb4;" horiz-adv-x="625" 
d="M461 691l120 -691h-149l-21 149h-212l-66 -149h-160l334 691h154zM361 548l-120 -302h158l-36 302h-2zM451 836l90 20q-6 -61 -54 -96q-44 -33 -107 -33q-135 0 -141 129l89 -20q6 -58 56 -58q51 0 67 58zM384 876v59l42 36q18 15 38 15q19 0 63.5 -24.5t59.5 -24.5
t73 52v-60q-51 -51 -79 -51q-20 0 -65 25.5t-56 25.5q-16 0 -76 -53z" />
    <glyph glyph-name="glyph302" unicode="&#x1eb5;" 
d="M521 447l-63 -447h-135l6 42q-64 -51 -131 -51q-75 0 -119 62q-40 55 -40 133q0 138 99 211q88 65 230 65q77 0 153 -15zM342 132l30 216q-15 2 -29 2q-93 0 -135 -66q-29 -45 -29 -105q0 -87 66 -87q49 0 97 40zM432 590l81 18q-5 -55 -46.5 -85.5t-98.5 -30.5
q-122 0 -126 116l80 -18q5 -53 50 -53q46 0 60 53zM372 626v53q54 46 72 46q17 0 57 -22.5t54 -22.5q12 0 30 16l35 31v-54q-46 -46 -71 -46q-18 0 -58 23t-51 23q-14 0 -68 -47z" />
    <glyph glyph-name="glyph303" unicode="&#x1eb6;" horiz-adv-x="625" 
d="M461 691l120 -691h-149l-21 149h-212l-66 -149h-160l334 691h154zM361 548l-120 -302h158l-36 302h-2zM451 836l90 20q-6 -61 -54 -96q-44 -33 -107 -33q-135 0 -141 129l89 -20q6 -58 56 -58q51 0 67 58zM361 -80q0 -32 -23 -55t-55 -23t-55 23t-23 55t23 55t55 23
t55 -23t23 -55z" />
    <glyph glyph-name="glyph304" unicode="&#x1eb7;" 
d="M521 447l-63 -447h-135l6 42q-64 -51 -131 -51q-75 0 -119 62q-40 55 -40 133q0 138 99 211q88 65 230 65q77 0 153 -15zM342 132l30 216q-15 2 -29 2q-93 0 -135 -66q-29 -45 -29 -105q0 -87 66 -87q49 0 97 40zM269 -119q0 -29 -20.5 -49.5t-49.5 -20.5t-49.5 20.5
t-20.5 49.5t20.5 49.5t49.5 20.5t49.5 -20.5t20.5 -49.5zM432 590l81 18q-6 -54 -47.5 -85t-97.5 -31q-57 0 -91 30t-36 86l80 -18q6 -52 50 -52q47 0 61 52z" />
    <glyph glyph-name="glyph305" unicode="&#x1eb8;" horiz-adv-x="583" 
d="M564 682l-16 -114h-281l-23 -161h247l-16 -114h-247l-25 -179h354l-16 -114h-499l96 682h426zM374 -120q0 -32 -23 -55t-55 -23t-55 23t-23 55t23 55t55 23t55 -23t23 -55z" />
    <glyph glyph-name="glyph306" unicode="&#x1eb9;" horiz-adv-x="510" 
d="M468 208h-297q-5 -52 23.5 -84.5t80.5 -32.5q55 0 168 46l-24 -113q-88 -33 -158 -33q-103 0 -164.5 59t-61.5 162q0 105 70.5 177.5t175.5 72.5q88 0 141 -51.5t53 -139.5q0 -30 -7 -63zM184 286h159q1 9 1 17q0 30 -18 48t-48 18q-65 0 -94 -83zM331 -119
q0 -29 -20.5 -49.5t-49.5 -20.5t-49.5 20.5t-20.5 49.5t20.5 49.5t49.5 20.5t49.5 -20.5t20.5 -49.5z" />
    <glyph glyph-name="glyph307" unicode="&#x1eba;" horiz-adv-x="583" 
d="M564 682l-16 -114h-281l-23 -161h247l-16 -114h-247l-25 -179h354l-16 -114h-499l96 682h426zM383 738l-61 -16q17 21 50.5 65.5t33.5 66.5q0 30 -33 31q-9 0 -23 -14l-31 -32l7 54q31 31 63 32q66 2 66 -62q0 -45 -59 -93z" />
    <glyph glyph-name="glyph308" unicode="&#x1ebb;" horiz-adv-x="510" 
d="M468 208h-297q-5 -52 23.5 -84.5t80.5 -32.5q55 0 168 46l-24 -113q-88 -33 -158 -33q-103 0 -164.5 59t-61.5 162q0 105 70.5 177.5t175.5 72.5q88 0 141 -51.5t53 -139.5q0 -30 -7 -63zM184 286h159q1 9 1 17q0 30 -18 48t-48 18q-65 0 -94 -83zM312 520l-61 -16
q17 21 50.5 65.5t33.5 66.5q0 30 -33 31q-9 0 -23 -14l-31 -32l7 54q31 31 63 32q66 2 66 -62q0 -45 -59 -93z" />
    <glyph glyph-name="glyph309" unicode="&#x1ebc;" horiz-adv-x="583" 
d="M564 682l-16 -114h-281l-23 -161h247l-16 -114h-247l-25 -179h354l-16 -114h-499l96 682h426zM231 724v59l42 36q18 15 38 15q19 0 63.5 -24.5t59.5 -24.5t73 52v-60q-51 -51 -79 -51q-20 0 -65 25.5t-56 25.5q-16 0 -76 -53z" />
    <glyph glyph-name="glyph310" unicode="&#x1ebd;" horiz-adv-x="510" 
d="M468 208h-297q-5 -52 23.5 -84.5t80.5 -32.5q55 0 168 46l-24 -113q-88 -33 -158 -33q-103 0 -164.5 59t-61.5 162q0 105 70.5 177.5t175.5 72.5q88 0 141 -51.5t53 -139.5q0 -30 -7 -63zM184 286h159q1 9 1 17q0 30 -18 48t-48 18q-65 0 -94 -83zM160 511v53
q54 46 72 46q17 0 57 -22t54 -22q13 0 65 46v-54q-46 -46 -71 -46q-18 0 -58 23t-51 23q-14 0 -68 -47z" />
    <glyph glyph-name="glyph311" unicode="&#x1ebe;" horiz-adv-x="583" 
d="M564 682l-16 -114h-281l-23 -161h247l-16 -114h-247l-25 -179h354l-16 -114h-499l96 682h426zM496 784l119 142h141zM420 836l90 -134h-74l-64 82l-99 -82h-82l141 134h88z" />
    <glyph glyph-name="glyph312" unicode="&#x1ebf;" horiz-adv-x="510" 
d="M468 208h-297q-5 -52 23.5 -84.5t80.5 -32.5q55 0 168 46l-24 -113q-88 -33 -158 -33q-103 0 -164.5 59t-61.5 162q0 105 70.5 177.5t175.5 72.5q88 0 141 -51.5t53 -139.5q0 -30 -7 -63zM184 286h159q1 9 1 17q0 30 -18 48t-48 18q-65 0 -94 -83zM406 555l107 127h127z
M338 601l81 -120h-67l-57 74l-89 -74h-74l127 120h79z" />
    <glyph glyph-name="glyph313" unicode="&#x1ec0;" horiz-adv-x="583" 
d="M564 682l-16 -114h-281l-23 -161h247l-16 -114h-247l-25 -179h354l-16 -114h-499l96 682h426zM239 785l-260 142h141zM420 836l90 -134h-74l-64 82l-99 -82h-82l141 134h88z" />
    <glyph glyph-name="glyph314" unicode="&#x1ec1;" horiz-adv-x="510" 
d="M468 208h-297q-5 -52 23.5 -84.5t80.5 -32.5q55 0 168 46l-24 -113q-88 -33 -158 -33q-103 0 -164.5 59t-61.5 162q0 105 70.5 177.5t175.5 72.5q88 0 141 -51.5t53 -139.5q0 -30 -7 -63zM184 286h159q1 9 1 17q0 30 -18 48t-48 18q-65 0 -94 -83zM174 556l-234 127h127z
M337 601l81 -120h-67l-58 74l-89 -74h-73l126 120h80z" />
    <glyph glyph-name="glyph315" unicode="&#x1ec2;" horiz-adv-x="583" 
d="M564 682l-16 -114h-281l-23 -161h247l-16 -114h-247l-25 -179h354l-16 -114h-499l96 682h426zM557 799l-61 -16q17 21 50.5 65.5t33.5 66.5q0 30 -33 31q-9 0 -23 -14l-31 -32l7 54q31 31 63 32q66 2 66 -62q0 -45 -59 -93zM420 835l90 -134h-74l-64 82l-99 -82h-82
l141 134h88z" />
    <glyph glyph-name="glyph316" unicode="&#x1ec3;" horiz-adv-x="510" 
d="M468 208h-297q-5 -52 23.5 -84.5t80.5 -32.5q55 0 168 46l-24 -113q-88 -33 -158 -33q-103 0 -164.5 59t-61.5 162q0 105 70.5 177.5t175.5 72.5q88 0 141 -51.5t53 -139.5q0 -30 -7 -63zM184 286h159q1 9 1 17q0 30 -18 48t-48 18q-65 0 -94 -83zM469 572l-61 -16
q17 21 50.5 65.5t33.5 66.5q0 30 -33 31q-9 0 -23 -14l-31 -32l7 54q31 31 63 32q66 2 66 -62q0 -45 -59 -93zM336 603l81 -121h-66l-58 74l-89 -74h-74l127 121h79z" />
    <glyph glyph-name="glyph317" unicode="&#x1ec4;" horiz-adv-x="583" 
d="M564 682l-16 -114h-281l-23 -161h247l-16 -114h-247l-25 -179h354l-16 -114h-499l96 682h426zM419 835l90 -134h-74l-64 82l-99 -82h-82l141 134h88zM221 863v59l42 36q18 15 38 15q19 0 63.5 -24.5t59.5 -24.5t73 52v-60q-51 -51 -79 -51q-20 0 -65 25.5t-56 25.5
q-16 0 -76 -53z" />
    <glyph glyph-name="glyph318" unicode="&#x1ec5;" horiz-adv-x="510" 
d="M468 208h-297q-5 -52 23.5 -84.5t80.5 -32.5q55 0 168 46l-24 -113q-88 -33 -158 -33q-103 0 -164.5 59t-61.5 162q0 105 70.5 177.5t175.5 72.5q88 0 141 -51.5t53 -139.5q0 -30 -7 -63zM184 286h159q1 9 1 17q0 30 -18 48t-48 18q-65 0 -94 -83zM337 603l81 -121h-67
l-57 74l-89 -74h-74l127 121h79zM159 628v53q54 46 72 46q17 0 57 -22t54 -22q13 0 65 46v-54q-46 -46 -71 -46q-18 0 -58 23t-51 23q-14 0 -68 -47z" />
    <glyph glyph-name="glyph319" unicode="&#x1ec6;" horiz-adv-x="583" 
d="M564 682l-16 -114h-281l-23 -161h247l-16 -114h-247l-25 -179h354l-16 -114h-499l96 682h426zM420 836l90 -134h-74l-64 82l-99 -82h-82l141 134h88zM374 -120q0 -32 -23 -55t-55 -23t-55 23t-23 55t23 55t55 23t55 -23t23 -55z" />
    <glyph glyph-name="glyph320" unicode="&#x1ec7;" horiz-adv-x="510" 
d="M468 208h-297q-5 -52 23.5 -84.5t80.5 -32.5q55 0 168 46l-24 -113q-88 -33 -158 -33q-103 0 -164.5 59t-61.5 162q0 105 70.5 177.5t175.5 72.5q88 0 141 -51.5t53 -139.5q0 -30 -7 -63zM184 286h159q1 9 1 17q0 30 -18 48t-48 18q-65 0 -94 -83zM338 601l81 -120h-67
l-57 74l-89 -74h-74l127 120h79zM331 -119q0 -29 -20.5 -49.5t-49.5 -20.5t-49.5 20.5t-20.5 49.5t20.5 49.5t49.5 20.5t49.5 -20.5t20.5 -49.5z" />
    <glyph glyph-name="glyph321" unicode="&#x1ec8;" horiz-adv-x="302" 
d="M286 682l-96 -682h-145l96 682h145zM245 737l-61 -16q17 21 50.5 65.5t33.5 66.5q0 30 -33 31q-9 0 -23 -14l-31 -32l7 54q31 31 63 32q66 2 66 -62q0 -45 -59 -93z" />
    <glyph glyph-name="glyph322" unicode="&#x1ec9;" horiz-adv-x="260" 
d="M228 454l-64 -454h-135l64 454h135zM189 511l-61 -16q17 21 50.5 65.5t33.5 66.5q0 30 -33 31q-9 0 -23 -14l-31 -32l7 54q31 31 63 32q66 2 66 -62q0 -45 -59 -93z" />
    <glyph glyph-name="glyph323" unicode="&#x1eca;" horiz-adv-x="302" 
d="M286 682l-96 -682h-145l96 682h145zM180 -120q0 -32 -23 -55t-55 -23t-55 23t-23 55t23 55t55 23t55 -23t23 -55z" />
    <glyph glyph-name="glyph324" unicode="&#x1ecb;" horiz-adv-x="260" 
d="M228 454l-64 -454h-135l64 454h135zM175 629q26 0 44.5 -18.5t18.5 -44.5t-18.5 -44.5t-44.5 -18.5t-44.5 18.5t-18.5 44.5t18.5 44.5t44.5 18.5zM153 -110q0 -29 -20.5 -49.5t-49.5 -20.5t-49.5 20.5t-20.5 49.5t20.5 49.5t49.5 20.5t49.5 -20.5t20.5 -49.5z" />
    <glyph glyph-name="glyph325" unicode="&#x1ecc;" horiz-adv-x="833" 
d="M797 380q0 -175 -109 -282t-284 -107q-145 0 -242 85q-102 88 -102 232q0 171 116 279q112 104 285 104q145 0 238 -82q98 -86 98 -229zM647 370q0 85 -55.5 140t-140.5 55q-102 0 -171.5 -73.5t-69.5 -176.5q0 -88 53.5 -143t141.5 -55q105 0 174 75q68 72 68 178z
M482 -128q0 -32 -23 -55t-55 -23t-55 23t-23 55t23 55t55 23t55 -23t23 -55z" />
    <glyph glyph-name="glyph326" unicode="&#x1ecd;" horiz-adv-x="563" 
d="M522 248q0 -111 -73.5 -184t-184.5 -73q-96 0 -162.5 62t-66.5 157q0 107 77 179.5t185 72.5q99 0 162 -57.5t63 -156.5zM382 252q0 44 -24 72t-67 28q-58 0 -91 -58q-25 -44 -25 -92q0 -41 25 -71t65 -30q54 0 87 50q30 44 30 101zM334 -119q0 -29 -20.5 -49.5
t-49.5 -20.5t-49.5 20.5t-20.5 49.5t20.5 49.5t49.5 20.5t49.5 -20.5t20.5 -49.5z" />
    <glyph glyph-name="glyph327" unicode="&#x1ece;" horiz-adv-x="833" 
d="M797 380q0 -175 -109 -282t-284 -107q-145 0 -242 85q-102 88 -102 232q0 171 116 279q112 104 285 104q145 0 238 -82q98 -86 98 -229zM647 370q0 85 -55.5 140t-140.5 55q-102 0 -171.5 -73.5t-69.5 -176.5q0 -88 53.5 -143t141.5 -55q105 0 174 75q68 72 68 178z
M493 740l-61 -16q17 21 50.5 65.5t33.5 66.5q0 30 -33 31q-9 0 -23 -14l-31 -32l7 54q31 31 63 32q66 2 66 -62q0 -45 -59 -93z" />
    <glyph glyph-name="glyph328" unicode="&#x1ecf;" horiz-adv-x="563" 
d="M522 248q0 -111 -73.5 -184t-184.5 -73q-96 0 -162.5 62t-66.5 157q0 107 77 179.5t185 72.5q99 0 162 -57.5t63 -156.5zM382 252q0 44 -24 72t-67 28q-58 0 -91 -58q-25 -44 -25 -92q0 -41 25 -71t65 -30q54 0 87 50q30 44 30 101zM328 520l-61 -16q17 21 50.5 65.5
t33.5 66.5q0 30 -33 31q-9 0 -23 -14l-31 -32l7 54q31 31 63 32q66 2 66 -62q0 -45 -59 -93z" />
    <glyph glyph-name="glyph329" unicode="&#x1ed0;" horiz-adv-x="833" 
d="M797 380q0 -175 -109 -282t-284 -107q-145 0 -242 85q-102 88 -102 232q0 171 116 279q112 104 285 104q145 0 238 -82q98 -86 98 -229zM647 370q0 85 -55.5 140t-140.5 55q-102 0 -171.5 -73.5t-69.5 -176.5q0 -88 53.5 -143t141.5 -55q105 0 174 75q68 72 68 178z
M599 787l119 142h141zM523 839l90 -134h-74l-64 82l-99 -82h-82l141 134h88z" />
    <glyph glyph-name="glyph330" unicode="&#x1ed1;" horiz-adv-x="563" 
d="M522 248q0 -111 -73.5 -184t-184.5 -73q-96 0 -162.5 62t-66.5 157q0 107 77 179.5t185 72.5q99 0 162 -57.5t63 -156.5zM382 252q0 44 -24 72t-67 28q-58 0 -91 -58q-25 -44 -25 -92q0 -41 25 -71t65 -30q54 0 87 50q30 44 30 101zM422 557l107 127h127zM354 603
l81 -120h-67l-57 74l-89 -74h-74l127 120h79z" />
    <glyph glyph-name="glyph331" unicode="&#x1ed2;" horiz-adv-x="833" 
d="M797 380q0 -175 -109 -282t-284 -107q-145 0 -242 85q-102 88 -102 232q0 171 116 279q112 104 285 104q145 0 238 -82q98 -86 98 -229zM647 370q0 85 -55.5 140t-140.5 55q-102 0 -171.5 -73.5t-69.5 -176.5q0 -88 53.5 -143t141.5 -55q105 0 174 75q68 72 68 178z
M341 788l-260 142h141zM522 839l90 -134h-74l-64 82l-99 -82h-82l141 134h88z" />
    <glyph glyph-name="glyph332" unicode="&#x1ed3;" horiz-adv-x="563" 
d="M522 248q0 -111 -73.5 -184t-184.5 -73q-96 0 -162.5 62t-66.5 157q0 107 77 179.5t185 72.5q99 0 162 -57.5t63 -156.5zM382 252q0 44 -24 72t-67 28q-58 0 -91 -58q-25 -44 -25 -92q0 -41 25 -71t65 -30q54 0 87 50q30 44 30 101zM192 558l-234 127h127zM355 603
l81 -120h-67l-58 74l-89 -74h-73l126 120h80z" />
    <glyph glyph-name="glyph333" unicode="&#x1ed4;" horiz-adv-x="833" 
d="M797 380q0 -175 -109 -282t-284 -107q-145 0 -242 85q-102 88 -102 232q0 171 116 279q112 104 285 104q145 0 238 -82q98 -86 98 -229zM647 370q0 85 -55.5 140t-140.5 55q-102 0 -171.5 -73.5t-69.5 -176.5q0 -88 53.5 -143t141.5 -55q105 0 174 75q68 72 68 178z
M659 803l-61 -16q17 21 50.5 65.5t33.5 66.5q0 30 -33 31q-9 0 -23 -14l-31 -32l7 54q31 31 63 32q66 2 66 -62q0 -45 -59 -93zM522 839l90 -134h-74l-64 82l-99 -82h-82l141 134h88z" />
    <glyph glyph-name="glyph334" unicode="&#x1ed5;" horiz-adv-x="563" 
d="M522 248q0 -111 -73.5 -184t-184.5 -73q-96 0 -162.5 62t-66.5 157q0 107 77 179.5t185 72.5q99 0 162 -57.5t63 -156.5zM382 252q0 44 -24 72t-67 28q-58 0 -91 -58q-25 -44 -25 -92q0 -41 25 -71t65 -30q54 0 87 50q30 44 30 101zM487 572l-61 -16q17 21 50.5 65.5
t33.5 66.5q0 30 -33 31q-9 0 -23 -14l-31 -32l7 54q31 31 63 32q66 2 66 -62q0 -45 -59 -93zM354 603l81 -121h-66l-58 74l-89 -74h-74l127 121h79z" />
    <glyph glyph-name="glyph335" unicode="&#x1ed6;" horiz-adv-x="833" 
d="M797 380q0 -175 -109 -282t-284 -107q-145 0 -242 85q-102 88 -102 232q0 171 116 279q112 104 285 104q145 0 238 -82q98 -86 98 -229zM647 370q0 85 -55.5 140t-140.5 55q-102 0 -171.5 -73.5t-69.5 -176.5q0 -88 53.5 -143t141.5 -55q105 0 174 75q68 72 68 178z
M521 839l90 -134h-74l-64 82l-99 -82h-82l141 134h88zM323 867v59l42 36q18 15 38 15q19 0 63.5 -24.5t59.5 -24.5t73 52v-60q-51 -51 -79 -51q-20 0 -65 25.5t-56 25.5q-16 0 -76 -53z" />
    <glyph glyph-name="glyph336" unicode="&#x1ed7;" horiz-adv-x="563" 
d="M522 248q0 -111 -73.5 -184t-184.5 -73q-96 0 -162.5 62t-66.5 157q0 107 77 179.5t185 72.5q99 0 162 -57.5t63 -156.5zM382 252q0 44 -24 72t-67 28q-58 0 -91 -58q-25 -44 -25 -92q0 -41 25 -71t65 -30q54 0 87 50q30 44 30 101zM337 603l81 -121h-67l-57 74l-89 -74
h-74l127 121h79zM159 628v53q54 46 72 46q17 0 57 -22t54 -22q13 0 65 46v-54q-46 -46 -71 -46q-18 0 -58 23t-51 23q-14 0 -68 -47z" />
    <glyph glyph-name="glyph337" unicode="&#x1ed8;" horiz-adv-x="833" 
d="M797 380q0 -175 -109 -282t-284 -107q-145 0 -242 85q-102 88 -102 232q0 171 116 279q112 104 285 104q145 0 238 -82q98 -86 98 -229zM647 370q0 85 -55.5 140t-140.5 55q-102 0 -171.5 -73.5t-69.5 -176.5q0 -88 53.5 -143t141.5 -55q105 0 174 75q68 72 68 178z
M523 839l90 -134h-74l-64 82l-99 -82h-82l141 134h88zM482 -128q0 -32 -23 -55t-55 -23t-55 23t-23 55t23 55t55 23t55 -23t23 -55z" />
    <glyph glyph-name="glyph338" unicode="&#x1ed9;" horiz-adv-x="563" 
d="M522 248q0 -111 -73.5 -184t-184.5 -73q-96 0 -162.5 62t-66.5 157q0 107 77 179.5t185 72.5q99 0 162 -57.5t63 -156.5zM382 252q0 44 -24 72t-67 28q-58 0 -91 -58q-25 -44 -25 -92q0 -41 25 -71t65 -30q54 0 87 50q30 44 30 101zM354 603l81 -120h-67l-57 74l-89 -74
h-74l127 120h79zM334 -119q0 -29 -20.5 -49.5t-49.5 -20.5t-49.5 20.5t-20.5 49.5t20.5 49.5t49.5 20.5t49.5 -20.5t20.5 -49.5z" />
    <glyph glyph-name="glyph339" unicode="&#x1eda;" horiz-adv-x="833" 
d="M647 370q0 85 -55.5 140t-140.5 55q-102 0 -171.5 -73.5t-69.5 -176.5q0 -88 53.5 -143t141.5 -55q105 0 174 75q68 72 68 178zM549 682h135q-21 18 -16 42q8 39 48 32q21 -4 31.5 -22t6.5 -39q-10 -56 -76 -70q119 -86 119 -245q0 -175 -109 -282t-284 -107
q-145 0 -242 85q-102 88 -102 232q0 171 116 279q112 104 285 104q46 0 88 -9zM462 732l119 142h141z" />
    <glyph glyph-name="glyph340" unicode="&#x1edb;" horiz-adv-x="563" 
d="M382 252q0 44 -24 72t-67 28q-58 0 -91 -58q-25 -44 -25 -92q0 -41 25 -71t65 -30q54 0 87 50q30 44 30 101zM363 454h108q-21 18 -16 42q8 39 48 32q21 -4 31.5 -22t6.5 -39q-10 -56 -76 -70q57 -57 57 -149q0 -111 -73.5 -184t-184.5 -73q-96 0 -162.5 62t-66.5 157
q0 107 77 179.5t185 72.5q34 0 66 -8zM297 512l107 127h127z" />
    <glyph glyph-name="glyph341" unicode="&#x1edc;" horiz-adv-x="833" 
d="M647 370q0 85 -55.5 140t-140.5 55q-102 0 -171.5 -73.5t-69.5 -176.5q0 -88 53.5 -143t141.5 -55q105 0 174 75q68 72 68 178zM549 682h135q-21 18 -16 42q8 39 48 32q21 -4 31.5 -22t6.5 -39q-10 -56 -76 -70q119 -86 119 -245q0 -175 -109 -282t-284 -107
q-145 0 -242 85q-102 88 -102 232q0 171 116 279q112 104 285 104q46 0 88 -9zM462 732l-260 142h141z" />
    <glyph glyph-name="glyph342" unicode="&#x1edd;" horiz-adv-x="563" 
d="M382 252q0 44 -24 72t-67 28q-58 0 -91 -58q-25 -44 -25 -92q0 -41 25 -71t65 -30q54 0 87 50q30 44 30 101zM363 454h108q-21 18 -16 42q8 39 48 32q21 -4 31.5 -22t6.5 -39q-10 -56 -76 -70q57 -57 57 -149q0 -111 -73.5 -184t-184.5 -73q-96 0 -162.5 62t-66.5 157
q0 107 77 179.5t185 72.5q34 0 66 -8zM297 512l-234 127h127z" />
    <glyph glyph-name="glyph343" unicode="&#x1ede;" horiz-adv-x="833" 
d="M647 370q0 85 -55.5 140t-140.5 55q-102 0 -171.5 -73.5t-69.5 -176.5q0 -88 53.5 -143t141.5 -55q105 0 174 75q68 72 68 178zM549 682h135q-21 18 -16 42q8 39 48 32q21 -4 31.5 -22t6.5 -39q-10 -56 -76 -70q119 -86 119 -245q0 -175 -109 -282t-284 -107
q-145 0 -242 85q-102 88 -102 232q0 171 116 279q112 104 285 104q46 0 88 -9zM493 740l-61 -16q17 21 50.5 65.5t33.5 66.5q0 30 -33 31q-9 0 -23 -14l-31 -32l7 54q31 31 63 32q66 2 66 -62q0 -45 -59 -93z" />
    <glyph glyph-name="glyph344" unicode="&#x1edf;" horiz-adv-x="563" 
d="M382 252q0 44 -24 72t-67 28q-58 0 -91 -58q-25 -44 -25 -92q0 -41 25 -71t65 -30q54 0 87 50q30 44 30 101zM363 454h108q-21 18 -16 42q8 39 48 32q21 -4 31.5 -22t6.5 -39q-10 -56 -76 -70q57 -57 57 -149q0 -111 -73.5 -184t-184.5 -73q-96 0 -162.5 62t-66.5 157
q0 107 77 179.5t185 72.5q34 0 66 -8zM328 520l-61 -16q17 21 50.5 65.5t33.5 66.5q0 30 -33 31q-9 0 -23 -14l-31 -32l7 54q31 31 63 32q66 2 66 -62q0 -45 -59 -93z" />
    <glyph glyph-name="glyph345" unicode="&#x1ee0;" horiz-adv-x="833" 
d="M647 370q0 85 -55.5 140t-140.5 55q-102 0 -171.5 -73.5t-69.5 -176.5q0 -88 53.5 -143t141.5 -55q105 0 174 75q68 72 68 178zM549 682h135q-21 18 -16 42q8 39 48 32q21 -4 31.5 -22t6.5 -39q-10 -56 -76 -70q119 -86 119 -245q0 -175 -109 -282t-284 -107
q-145 0 -242 85q-102 88 -102 232q0 171 116 279q112 104 285 104q46 0 88 -9zM323 732v59l42 36q18 15 38 15q19 0 63.5 -24.5t59.5 -24.5t73 52v-60q-51 -51 -79 -51q-20 0 -65 25.5t-56 25.5q-16 0 -76 -53z" />
    <glyph glyph-name="glyph346" unicode="&#x1ee1;" horiz-adv-x="563" 
d="M382 252q0 44 -24 72t-67 28q-58 0 -91 -58q-25 -44 -25 -92q0 -41 25 -71t65 -30q54 0 87 50q30 44 30 101zM363 454h108q-21 18 -16 42q8 39 48 32q21 -4 31.5 -22t6.5 -39q-10 -56 -76 -70q57 -57 57 -149q0 -111 -73.5 -184t-184.5 -73q-96 0 -162.5 62t-66.5 157
q0 107 77 179.5t185 72.5q34 0 66 -8zM177 511v53q54 46 72 46q17 0 57 -22t54 -22q13 0 65 46v-54q-46 -46 -71 -46q-18 0 -58 23t-51 23q-14 0 -68 -47z" />
    <glyph glyph-name="glyph347" unicode="&#x1ee2;" horiz-adv-x="833" 
d="M647 370q0 85 -55.5 140t-140.5 55q-102 0 -171.5 -73.5t-69.5 -176.5q0 -88 53.5 -143t141.5 -55q105 0 174 75q68 72 68 178zM549 682h135q-21 18 -16 42q8 39 48 32q21 -4 31.5 -22t6.5 -39q-10 -56 -76 -70q119 -86 119 -245q0 -175 -109 -282t-284 -107
q-145 0 -242 85q-102 88 -102 232q0 171 116 279q112 104 285 104q46 0 88 -9zM482 -128q0 -32 -23 -55t-55 -23t-55 23t-23 55t23 55t55 23t55 -23t23 -55z" />
    <glyph glyph-name="glyph348" unicode="&#x1ee3;" horiz-adv-x="563" 
d="M382 252q0 44 -24 72t-67 28q-58 0 -91 -58q-25 -44 -25 -92q0 -41 25 -71t65 -30q54 0 87 50q30 44 30 101zM363 454h108q-21 18 -16 42q8 39 48 32q21 -4 31.5 -22t6.5 -39q-10 -56 -76 -70q57 -57 57 -149q0 -111 -73.5 -184t-184.5 -73q-96 0 -162.5 62t-66.5 157
q0 107 77 179.5t185 72.5q34 0 66 -8zM334 -119q0 -29 -20.5 -49.5t-49.5 -20.5t-49.5 20.5t-20.5 49.5t20.5 49.5t49.5 20.5t49.5 -20.5t20.5 -49.5z" />
    <glyph glyph-name="glyph349" unicode="&#x1ee4;" horiz-adv-x="750" 
d="M744 682l-60 -425q-38 -266 -314 -266q-133 0 -212 57q-90 64 -90 192q0 26 4 54l56 388h145l-55 -386q-3 -21 -3 -37q0 -69 44 -106q41 -36 111 -36q72 0 116.5 40t54.5 112l58 413h145zM447 -128q0 -32 -23 -55t-55 -23t-55 23t-23 55t23 55t55 23t55 -23t23 -55z" />
    <glyph glyph-name="glyph350" unicode="&#x1ee5;" 
d="M518 454l-64 -454h-135l8 51q-70 -59 -147 -59q-63 0 -98 37.5t-35 101.5q0 14 3 35l41 288h135l-34 -241q-4 -28 -4 -53q0 -68 40 -68q53 0 114 66l41 296h135zM320 -108q0 -29 -20.5 -49.5t-49.5 -20.5t-49.5 20.5t-20.5 49.5t20.5 49.5t49.5 20.5t49.5 -20.5
t20.5 -49.5z" />
    <glyph glyph-name="glyph351" unicode="&#x1ee6;" horiz-adv-x="750" 
d="M744 682l-60 -425q-38 -266 -314 -266q-133 0 -212 57q-90 64 -90 192q0 26 4 54l56 388h145l-55 -386q-3 -21 -3 -37q0 -69 44 -106q41 -36 111 -36q72 0 116.5 40t54.5 112l58 413h145zM473 697l-61 -16q17 21 50.5 65.5t33.5 66.5q0 30 -33 31q-9 0 -23 -14l-31 -32
l7 54q31 31 63 32q66 2 66 -62q0 -45 -59 -93z" />
    <glyph glyph-name="glyph352" unicode="&#x1ee7;" 
d="M518 454l-64 -454h-135l8 51q-70 -59 -147 -59q-63 0 -98 37.5t-35 101.5q0 14 3 35l41 288h135l-34 -241q-4 -28 -4 -53q0 -68 40 -68q53 0 114 66l41 296h135zM328 480l-61 -16q17 21 50.5 65.5t33.5 66.5q0 30 -33 31q-9 0 -23 -14l-31 -32l7 54q31 31 63 32
q66 2 66 -62q0 -45 -59 -93z" />
    <glyph glyph-name="glyph353" unicode="&#x1ee8;" horiz-adv-x="750" 
d="M728 724q8 39 48 32q21 -4 31.5 -22t6.5 -39q-10 -57 -78 -70l-52 -368q-38 -266 -314 -266q-133 0 -212 57q-90 64 -90 192q0 26 4 54l56 388h145l-55 -386q-3 -21 -3 -37q0 -69 44 -106q41 -36 111 -36q72 0 116.5 40t54.5 112l58 413h145q-21 18 -16 42zM442 692
l119 142h141z" />
    <glyph glyph-name="glyph354" unicode="&#x1ee9;" 
d="M510 397l-56 -397h-135l8 51q-70 -59 -147 -59q-63 0 -98 37.5t-35 101.5q0 14 3 35l41 288h135l-34 -241q-4 -28 -4 -53q0 -68 40 -68q53 0 114 66l41 296h134q-21 18 -16 42q8 39 48 32q21 -4 31.5 -22t6.5 -39q-10 -57 -77 -70zM297 462l107 127h127z" />
    <glyph glyph-name="glyph355" unicode="&#x1eea;" horiz-adv-x="750" 
d="M728 724q8 39 48 32q21 -4 31.5 -22t6.5 -39q-10 -57 -78 -70l-52 -368q-38 -266 -314 -266q-133 0 -212 57q-90 64 -90 192q0 26 4 54l56 388h145l-55 -386q-3 -21 -3 -37q0 -69 44 -106q41 -36 111 -36q72 0 116.5 40t54.5 112l58 413h145q-21 18 -16 42zM442 692
l-260 142h141z" />
    <glyph glyph-name="glyph356" unicode="&#x1eeb;" 
d="M510 397l-56 -397h-135l8 51q-70 -59 -147 -59q-63 0 -98 37.5t-35 101.5q0 14 3 35l41 288h135l-34 -241q-4 -28 -4 -53q0 -68 40 -68q53 0 114 66l41 296h134q-21 18 -16 42q8 39 48 32q21 -4 31.5 -22t6.5 -39q-10 -57 -77 -70zM297 462l-234 127h127z" />
    <glyph glyph-name="glyph357" unicode="&#x1eec;" horiz-adv-x="750" 
d="M728 724q8 39 48 32q21 -4 31.5 -22t6.5 -39q-10 -57 -78 -70l-52 -368q-38 -266 -314 -266q-133 0 -212 57q-90 64 -90 192q0 26 4 54l56 388h145l-55 -386q-3 -21 -3 -37q0 -69 44 -106q41 -36 111 -36q72 0 116.5 40t54.5 112l58 413h145q-21 18 -16 42zM473 697
l-61 -16q17 21 50.5 65.5t33.5 66.5q0 30 -33 31q-9 0 -23 -14l-31 -32l7 54q31 31 63 32q66 2 66 -62q0 -45 -59 -93z" />
    <glyph glyph-name="glyph358" unicode="&#x1eed;" 
d="M510 397l-56 -397h-135l8 51q-70 -59 -147 -59q-63 0 -98 37.5t-35 101.5q0 14 3 35l41 288h135l-34 -241q-4 -28 -4 -53q0 -68 40 -68q53 0 114 66l41 296h134q-21 18 -16 42q8 39 48 32q21 -4 31.5 -22t6.5 -39q-10 -57 -77 -70zM328 480l-61 -16q17 21 50.5 65.5
t33.5 66.5q0 30 -33 31q-9 0 -23 -14l-31 -32l7 54q31 31 63 32q66 2 66 -62q0 -45 -59 -93z" />
    <glyph glyph-name="glyph359" unicode="&#x1eee;" horiz-adv-x="750" 
d="M728 724q8 39 48 32q21 -4 31.5 -22t6.5 -39q-10 -57 -78 -70l-52 -368q-38 -266 -314 -266q-133 0 -212 57q-90 64 -90 192q0 26 4 54l56 388h145l-55 -386q-3 -21 -3 -37q0 -69 44 -106q41 -36 111 -36q72 0 116.5 40t54.5 112l58 413h145q-21 18 -16 42zM313 692v59
l42 36q18 15 38 15q19 0 63.5 -24.5t59.5 -24.5t73 52v-60q-51 -51 -79 -51q-20 0 -65 25.5t-56 25.5q-16 0 -76 -53z" />
    <glyph glyph-name="glyph360" unicode="&#x1eef;" 
d="M510 397l-56 -397h-135l8 51q-70 -59 -147 -59q-63 0 -98 37.5t-35 101.5q0 14 3 35l41 288h135l-34 -241q-4 -28 -4 -53q0 -68 40 -68q53 0 114 66l41 296h134q-21 18 -16 42q8 39 48 32q21 -4 31.5 -22t6.5 -39q-10 -57 -77 -70zM177 491v53q54 46 72 46q17 0 57 -22
t54 -22q13 0 65 46v-54q-46 -46 -71 -46q-18 0 -58 23t-51 23q-14 0 -68 -47z" />
    <glyph glyph-name="glyph361" unicode="&#x1ef0;" horiz-adv-x="750" 
d="M728 724q8 39 48 32q21 -4 31.5 -22t6.5 -39q-10 -57 -78 -70l-52 -368q-38 -266 -314 -266q-133 0 -212 57q-90 64 -90 192q0 26 4 54l56 388h145l-55 -386q-3 -21 -3 -37q0 -69 44 -106q41 -36 111 -36q72 0 116.5 40t54.5 112l58 413h145q-21 18 -16 42zM447 -128
q0 -32 -23 -55t-55 -23t-55 23t-23 55t23 55t55 23t55 -23t23 -55z" />
    <glyph glyph-name="glyph362" unicode="&#x1ef1;" 
d="M510 397l-56 -397h-135l8 51q-70 -59 -147 -59q-63 0 -98 37.5t-35 101.5q0 14 3 35l41 288h135l-34 -241q-4 -28 -4 -53q0 -68 40 -68q53 0 114 66l41 296h134q-21 18 -16 42q8 39 48 32q21 -4 31.5 -22t6.5 -39q-10 -57 -77 -70zM320 -108q0 -29 -20.5 -49.5
t-49.5 -20.5t-49.5 20.5t-20.5 49.5t20.5 49.5t49.5 20.5t49.5 -20.5t20.5 -49.5z" />
    <glyph glyph-name="glyph363" unicode="&#x1ef2;" horiz-adv-x="563" 
d="M618 682l-257 -396l-40 -286h-145l40 286l-144 396h145l88 -263l158 263h155zM339 692l-260 142h141z" />
    <glyph glyph-name="glyph364" unicode="&#x1ef3;" horiz-adv-x="490" 
d="M510 454l-330 -684h-142l132 272l-145 412h135l89 -265l120 265h141zM257 462l-234 127h127z" />
    <glyph glyph-name="glyph365" unicode="&#x1ef4;" horiz-adv-x="563" 
d="M618 682l-257 -396l-40 -286h-145l40 286l-144 396h145l88 -263l158 263h155zM314 -120q0 -32 -23 -55t-55 -23t-55 23t-23 55t23 55t55 23t55 -23t23 -55z" />
    <glyph glyph-name="glyph366" unicode="&#x1ef5;" horiz-adv-x="490" 
d="M510 454l-330 -684h-142l132 272l-145 412h135l89 -265l120 265h141zM430 -88q0 -29 -20.5 -49.5t-49.5 -20.5t-49.5 20.5t-20.5 49.5t20.5 49.5t49.5 20.5t49.5 -20.5t20.5 -49.5z" />
    <glyph glyph-name="glyph367" unicode="&#x1ef6;" horiz-adv-x="563" 
d="M618 682l-257 -396l-40 -286h-145l40 286l-144 396h145l88 -263l158 263h155zM370 697l-61 -16q17 21 50.5 65.5t33.5 66.5q0 30 -33 31q-9 0 -23 -14l-31 -32l7 54q31 31 63 32q66 2 66 -62q0 -45 -59 -93z" />
    <glyph glyph-name="glyph368" unicode="&#x1ef7;" horiz-adv-x="490" 
d="M510 454l-330 -684h-142l132 272l-145 412h135l89 -265l120 265h141zM298 470l-61 -16q17 21 50.5 65.5t33.5 66.5q0 30 -33 31q-9 0 -23 -14l-31 -32l7 54q31 31 63 32q66 2 66 -62q0 -45 -59 -93z" />
    <glyph glyph-name="glyph369" unicode="&#x1ef8;" horiz-adv-x="563" 
d="M618 682l-257 -396l-40 -286h-145l40 286l-144 396h145l88 -263l158 263h155zM199 702v59l42 36q18 15 38 15q19 0 63.5 -24.5t59.5 -24.5t73 52v-60q-51 -51 -79 -51q-20 0 -65 25.5t-56 25.5q-16 0 -76 -53z" />
    <glyph glyph-name="glyph370" unicode="&#x1ef9;" horiz-adv-x="490" 
d="M510 454l-330 -684h-142l132 272l-145 412h135l89 -265l120 265h141zM137 481v53q54 46 72 46q17 0 57 -22t54 -22q13 0 65 46v-54q-46 -46 -71 -46q-18 0 -58 23t-51 23q-14 0 -68 -47z" />
    <glyph glyph-name="endash" unicode="&#x2013;" horiz-adv-x="500" 
d="M506 298v-134h-512v134h512z" />
    <glyph glyph-name="emdash" unicode="&#x2014;" horiz-adv-x="1000" 
d="M1006 298v-134h-1012v134h1012z" />
    <glyph glyph-name="quoteleft" unicode="&#x2018;" horiz-adv-x="260" 
d="M300 691v0l-15 -61q-64 -15 -86 -72q48 -27 48 -76q0 -35 -24.5 -57.5t-59.5 -22.5q-41 0 -68.5 31.5t-27.5 73.5q0 86 76 138q67 46 157 46z" />
    <glyph glyph-name="quoteright" unicode="&#x2019;" horiz-adv-x="260" 
d="M48 402v0l15 61q64 15 86 72q-48 27 -48 76q0 35 24.5 57.5t59.5 22.5q41 0 68.5 -31.5t27.5 -73.5q0 -86 -76 -138q-67 -46 -157 -46z" />
    <glyph glyph-name="quotesinglbase" unicode="&#x201a;" horiz-adv-x="260" 
d="M-45 -145v0l15 61q64 15 86 72q-48 27 -48 76q0 35 24.5 57.5t59.5 22.5q41 0 68.5 -31.5t27.5 -73.5q0 -86 -76 -138q-67 -46 -157 -46z" />
    <glyph glyph-name="quotedblleft" unicode="&#x201c;" horiz-adv-x="490" 
d="M544 691v0l-15 -61q-64 -15 -86 -72q48 -27 48 -76q0 -35 -24.5 -57.5t-59.5 -22.5q-41 0 -68.5 31.5t-27.5 73.5q0 86 76 138q67 46 157 46zM286 691v0l-15 -61q-64 -15 -86 -72q48 -27 48 -76q0 -35 -24.5 -57.5t-59.5 -22.5q-41 0 -68.5 31.5t-27.5 73.5q0 86 76 138
q67 46 157 46z" />
    <glyph glyph-name="quotedblright" unicode="&#x201d;" horiz-adv-x="490" 
d="M295 402v0l15 61q64 15 86 72q-48 27 -48 76q0 35 24.5 57.5t59.5 22.5q41 0 68.5 -31.5t27.5 -73.5q0 -86 -76 -138q-67 -46 -157 -46zM38 402v0l15 61q64 15 86 72q-48 27 -48 76q0 35 24.5 57.5t59.5 22.5q41 0 68.5 -31.5t27.5 -73.5q0 -86 -76 -138
q-67 -46 -157 -46z" />
    <glyph glyph-name="quotedblbase" unicode="&#x201e;" horiz-adv-x="490" 
d="M186 -145v0l15 61q64 15 86 72q-48 27 -48 76q0 35 24.5 57.5t59.5 22.5q41 0 68.5 -31.5t27.5 -73.5q0 -86 -76 -138q-67 -46 -157 -46zM-41 -145v0l15 61q64 15 86 72q-48 27 -48 76q0 35 24.5 57.5t59.5 22.5q41 0 68.5 -31.5t27.5 -73.5q0 -86 -76 -138
q-67 -46 -157 -46z" />
    <glyph glyph-name="dagger" unicode="&#x2020;" horiz-adv-x="531" 
d="M257 423q-10 86 -10 137q0 131 82 131q63 0 63 -75q0 -61 -63 -194q87 40 131 40q62 0 62 -63q0 -34 -23.5 -51.5t-58.5 -17.5q-54 0 -123 36l-7 -357q-10 -174 -53 -217q-22 -22 -47 -22q-70 0 -70 98q0 101 110 498q-90 -36 -132 -36q-28 0 -48 18t-20 46q0 32 23 50
t55 18q59 0 129 -39z" />
    <glyph glyph-name="daggerdbl" unicode="&#x2021;" horiz-adv-x="510" 
d="M307 395q-8 -33 -8 -77q0 -47 8 -86q-43 -81 -51 -166q82 43 128 43q68 0 68 -67q0 -27 -18.5 -45t-45.5 -18q-51 0 -132 50q-1 -29 9.5 -83t10.5 -80q0 -39 -18 -66q-21 -30 -58 -30q-32 0 -51 23t-19 55q0 38 31 100q35 70 39 82q-93 -51 -138 -51q-29 0 -47.5 18
t-18.5 47q0 30 20.5 48t51.5 18q49 0 137 -44q3 32 3 61q0 58 -11 104q49 103 59 166q-73 -47 -128 -47q-31 0 -50.5 19t-19.5 49q0 29 17.5 45.5t46.5 16.5q41 0 134 -49q1 28 -10 85t-11 82q0 35 21.5 64t55.5 29q32 0 51 -22t19 -54q0 -36 -28 -89q-33 -63 -42 -95
q98 49 138 49q29 0 46.5 -17t17.5 -46q0 -30 -18.5 -49t-48.5 -19q-39 0 -140 46z" />
    <glyph glyph-name="bullet" unicode="&#x2022;" horiz-adv-x="354" 
d="M188 485q60 0 102 -42t42 -102t-42 -102t-102 -42t-102 42t-42 102t42 102t102 42z" />
    <glyph glyph-name="ellipsis" unicode="&#x2026;" horiz-adv-x="1000" 
d="M890 78q0 -36 -25.5 -61.5t-61.5 -25.5t-61.5 25.5t-25.5 61.5t25.5 61.5t61.5 25.5t61.5 -25.5t25.5 -61.5zM557 78q0 -36 -25.5 -61.5t-61.5 -25.5t-61.5 25.5t-25.5 61.5t25.5 61.5t61.5 25.5t61.5 -25.5t25.5 -61.5zM224 78q0 -36 -25.5 -61.5t-61.5 -25.5
t-61.5 25.5t-25.5 61.5t25.5 61.5t61.5 25.5t61.5 -25.5t25.5 -61.5z" />
    <glyph glyph-name="perthousand" unicode="&#x2030;" horiz-adv-x="1083" 
d="M267 530q0 30 -20.5 52.5t-50.5 22.5q-31 0 -51 -22t-20 -53q0 -30 20.5 -52.5t50.5 -22.5q31 0 51 22t20 53zM357 530q0 -67 -47 -114t-114 -47t-114 47t-47 114t47 114t114 47t114 -47t47 -114zM649 691l-477 -699h-83l480 699h80zM1074 152q0 -67 -47 -114t-114 -47
t-114 47t-47 114t47 114t114 47t114 -47t47 -114zM984 152q0 30 -20.5 52.5t-50.5 22.5q-31 0 -51 -22t-20 -53q0 -30 20.5 -52.5t50.5 -22.5q31 0 51 22t20 53zM705 152q0 -67 -47 -114t-114 -47t-114 47t-47 114t47 114t114 47t114 -47t47 -114zM615 152q0 30 -20.5 52.5
t-50.5 22.5q-31 0 -51 -22t-20 -53q0 -30 20.5 -52.5t50.5 -22.5q31 0 51 22t20 53z" />
    <glyph glyph-name="guilsinglleft" unicode="&#x2039;" horiz-adv-x="271" 
d="M298 461l-164 -230l67 -231h-113l-73 255l151 206h132z" />
    <glyph glyph-name="guilsinglright" unicode="&#x203a;" horiz-adv-x="271" 
d="M-21 0l164 230l-67 231h113l73 -255l-151 -206h-132z" />
    <glyph glyph-name="fraction" unicode="&#x2044;" horiz-adv-x="188" 
d="M377 691l-479 -718h-88l479 718h88z" />
    <glyph glyph-name="franc" unicode="&#x20a3;" horiz-adv-x="1035" 
d="M531 682l-17 -114h-247l-22 -162h213l-16 -114h-213l-42 -292h-145l96 682h393zM874 454l-10 -65l2 -2q61 75 110 75q38 0 81 -50l-63 -125q-33 49 -64 49q-23 0 -49 -23q-22 -19 -33 -43l-38 -270h-135l64 454h135z" />
    <glyph glyph-name="u20AB" unicode="&#x20ab;" horiz-adv-x="393" 
d="M197 501q-48 0 -84 -88q-20 -49 -20 -90q0 -51 39 -51q41 0 74 71q28 60 28 107q0 51 -37 51zM200 267q-53 -62 -106 -62q-91 0 -91 102q0 81 54 153q59 78 137 78q34 0 61 -24l20 75h-100l10 36h100l2 16q0 31 -48 32l7 33q67 2 128 14l15 3q6 0 6 -9q-1 -2 -3 -12
l-19 -77h65l-10 -36h-65l-69 -280q-5 -20 -5 -27q0 -15 12 -15q6 0 49 42l20 -18q-70 -86 -117 -86q-43 0 -53 62zM9 160h221v-56h-221v56z" />
    <glyph glyph-name="trademark" unicode="&#x2122;" horiz-adv-x="1000" 
d="M229 316v330h-123v70h324v-70h-120v-330h-81zM478 316v400h127l72 -276h2l72 276h127v-400h-77v319h-2l-85 -319h-73l-84 319h-2v-319h-77z" />
    <glyph glyph-name="minus" unicode="&#x2212;" horiz-adv-x="584" 
d="M55 289v128h500v-128h-500z" />
    <glyph glyph-name="SF370000" unicode="&#x255f;" horiz-adv-x="718" 
d="M461 691l120 -691h-149l-21 149h-212l-66 -149h-160l334 691h154zM361 548l-120 -302h158l-36 302h-2z" />
    <glyph glyph-name="SF420000" unicode="&#x2560;" horiz-adv-x="681" 
d="M564 682l-16 -114h-281l-23 -161h247l-16 -114h-247l-25 -179h354l-16 -114h-499l96 682h426z" />
    <glyph glyph-name="SF190000" unicode="&#x2561;" horiz-adv-x="429" 
d="M286 682l-96 -682h-145l96 682h145z" />
    <glyph glyph-name="SF200000" unicode="&#x2562;" horiz-adv-x="773" 
d="M797 380q0 -174 -109.5 -281.5t-283.5 -107.5q-146 0 -242 85q-102 89 -102 232q0 170 116 278q114 105 285 105q144 0 238 -82q98 -87 98 -229zM647 370q0 85 -55.5 140t-140.5 55q-101 0 -171 -74t-70 -176q0 -88 54 -143t141 -55q104 0 173 74t69 179z" />
    <glyph glyph-name="SF230000" unicode="&#x2563;" horiz-adv-x="811" 
d="M744 682l-60 -425q-38 -266 -314 -266q-134 0 -212 57q-90 64 -90 192q0 26 4 54l56 388h145l-55 -386q-3 -21 -3 -37q0 -69 43 -105.5t112 -36.5q72 0 116.5 40t54.5 112l58 413h145z" />
    <glyph glyph-name="SF470000" unicode="&#x2564;" horiz-adv-x="699" 
d="M618 682l-257 -396l-40 -286h-145l40 286l-144 396h145l88 -263l158 263h155z" />
    <glyph glyph-name="SF480000" unicode="&#x2565;" horiz-adv-x="541" 
d="M521 447l-63 -447h-135l6 42q-64 -51 -131 -51q-75 0 -119 62q-40 55 -40 133q0 137 98 210q89 66 231 66q77 0 153 -15zM342 132l30 216q-15 2 -29 2q-93 0 -135 -66q-29 -45 -29 -105q0 -87 66 -87q49 0 97 40z" />
    <glyph glyph-name="SF410000" unicode="&#x2566;" horiz-adv-x="431" 
d="M468 208h-297q-5 -52 23.5 -84.5t80.5 -32.5q55 0 168 46l-24 -113q-88 -33 -158 -33q-103 0 -164.5 59.5t-61.5 161.5q0 104 71 177t175 73q88 0 141 -51.5t53 -139.5q0 -30 -7 -63zM184 286h159q1 9 1 17q0 30 -18 48t-48 18q-65 0 -94 -83z" />
    <glyph glyph-name="SF450000" unicode="&#x2567;" horiz-adv-x="314" 
d="M228 454l-64 -454h-135l64 454h135zM176 650q29 0 49.5 -20.5t20.5 -49.5t-20.5 -49.5t-49.5 -20.5t-49.5 20.5t-20.5 49.5t20.5 49.5t49.5 20.5z" />
    <glyph glyph-name="SF460000" unicode="&#x2568;" horiz-adv-x="314" 
d="M228 454l-64 -454h-135l64 454h135z" />
    <glyph glyph-name="SF400000" unicode="&#x2569;" horiz-adv-x="498" 
d="M522 248q0 -110 -74 -183.5t-184 -73.5q-95 0 -162 62t-67 157q0 106 77.5 179t184.5 73q98 0 161 -57q64 -60 64 -157zM382 252q0 43 -24 71.5t-67 28.5q-58 0 -91 -58q-25 -44 -25 -92q0 -41 25 -71t65 -30q54 0 87 50q30 45 30 101z" />
    <glyph glyph-name="SF540000" unicode="&#x256a;" horiz-adv-x="557" 
d="M518 454l-64 -454h-135l8 51q-70 -59 -147 -59q-63 0 -98 37.5t-35 101.5q0 14 3 35l41 288h135l-34 -241q-4 -28 -4 -53q0 -68 40 -68q53 0 114 66l41 296h135z" />
    <glyph glyph-name="SF530000" unicode="&#x256b;" horiz-adv-x="497" 
d="M510 454l-330 -684h-142l132 272l-145 412h135l89 -265l120 265h141z" />
    <glyph glyph-name="circle" unicode="&#x25cb;" horiz-adv-x="718" 
d="M533 908l59 -160h-82l-61 91l-100 -91h-91l126 160h149zM318 924l89 172h161l-177 -172h-73z" />
    <glyph glyph-name="H18533" unicode="&#x25cf;" horiz-adv-x="718" 
d="M533 908l59 -160h-82l-61 91l-100 -91h-91l126 160h149zM612 925h-73l-177 172h161z" />
    <glyph glyph-name="invbullet" unicode="&#x25d8;" horiz-adv-x="718" 
d="M533 908l59 -160h-82l-61 91l-100 -91h-91l126 160h149zM614 903q9 28 11 64q1 11 8 13q2 0 8 1q67 11 67 54q0 35 -28 35q-5 0 -14 -1t-14 -1q-21 0 -21 18q0 28 32 28q46 0 75 -24q31 -27 27 -72q-6 -59 -87 -81q-25 -7 -31 -34h-33z" />
    <glyph glyph-name="invcircle" unicode="&#x25d9;" horiz-adv-x="718" 
d="M533 908l59 -160h-82l-61 91l-100 -91h-91l126 160h149zM380 935v0h-64q0 147 97 147q30 0 76 -24t55 -24q31 0 38 48h64q1 -59 -19 -98q-25 -50 -79 -50q-24 0 -71.5 24t-58.5 24q-35 0 -38 -47z" />
    <glyph glyph-name="fi" unicode="&#xf001;" horiz-adv-x="583" 
d="M345 454l-14 -100h-82l-77 -553h-135l77 553h-77l14 100h78q9 107 70.5 172t166.5 65q84 0 140 -48q61 -52 55 -135h-135q-9 65 -68 65q-44 0 -70 -39q-21 -32 -25 -80h82zM553 454l-64 -454h-135l64 454h135z" />
    <glyph glyph-name="fl" unicode="&#xf002;" horiz-adv-x="583" 
d="M346 454l-14 -100h-83l-78 -553h-134l77 553h-77l14 100h77q20 123 72 175q62 62 158 62q31 0 56 -9l-16 -113q-21 12 -39 12q-44 0 -71 -43q-21 -35 -25 -84h83zM585 682l-96 -682h-135l96 682h135z" />
    <glyph glyph-name="periodcentered" horiz-adv-x="260" 
d="M233 346q0 -36 -25.5 -61.5t-61.5 -25.5t-61.5 25.5t-25.5 61.5t25.5 61.5t61.5 25.5t61.5 -25.5t25.5 -61.5z" />
    <glyph glyph-name="glyph231" horiz-adv-x="278" 
 />
    <glyph glyph-name="glyph232" horiz-adv-x="278" 
 />
    <glyph glyph-name="glyph258" horiz-adv-x="278" 
 />
    <glyph glyph-name="glyph259" horiz-adv-x="278" 
 />
    <glyph glyph-name="glyph275" horiz-adv-x="249" 
 />
    <glyph glyph-name="glyph276" horiz-adv-x="249" 
 />
    <glyph glyph-name="glyph261" horiz-adv-x="500" 
d="M253 522q9 28 11 64q1 11 8 13q2 0 8 1q67 11 67 54q0 35 -28 35q-5 0 -14 -1t-14 -1q-21 0 -21 18q0 28 32 28q46 0 75 -24q31 -27 27 -72q-6 -59 -87 -81q-25 -7 -31 -34h-33z" />
    <glyph glyph-name="glyph262" horiz-adv-x="541" 
d="M330 676l59 -160h-82l-61 91l-100 -91h-91l126 160h149zM114 693l89 172h161l-177 -172h-73z" />
    <glyph glyph-name="glyph263" horiz-adv-x="541" 
d="M330 676l59 -160h-82l-61 91l-100 -91h-91l126 160h149zM409 693h-73l-177 172h161z" />
    <glyph glyph-name="glyph264" horiz-adv-x="541" 
d="M330 676l59 -160h-82l-61 91l-100 -91h-91l126 160h149zM411 671q9 28 11 64q1 11 8 13q2 0 8 1q67 11 67 54q0 35 -28 35q-5 0 -14 -1t-14 -1q-21 0 -21 18q0 28 32 28q46 0 75 -24q31 -27 27 -72q-6 -59 -87 -81q-25 -7 -31 -34h-33z" />
    <glyph glyph-name="glyph265" horiz-adv-x="541" 
d="M330 676l59 -160h-82l-61 91l-100 -91h-91l126 160h149zM177 703v0h-64q0 147 97 147q30 0 76 -24t55 -24q31 0 38 48h64q1 -59 -19 -98q-25 -50 -79 -50q-24 0 -71.5 24t-58.5 24q-35 0 -38 -47z" />
    <glyph glyph-name="glyph266" horiz-adv-x="541" 
d="M323 672h88q-6 -69 -49.5 -112t-112.5 -43q-132 0 -140 155h88q6 -65 57 -65q50 0 69 65zM193 693l89 172h161l-177 -172h-73z" />
    <glyph glyph-name="glyph267" horiz-adv-x="541" 
d="M323 672h88q-6 -69 -49.5 -112t-112.5 -43q-132 0 -140 155h88q6 -65 57 -65q50 0 69 65zM356 693h-73l-177 172h161z" />
    <glyph glyph-name="glyph268" horiz-adv-x="541" 
d="M323 672h88q-6 -69 -49.5 -112t-112.5 -43q-132 0 -140 155h88q6 -65 57 -65q50 0 69 65zM306 671q9 28 11 64q1 11 8 13q2 0 8 1q67 11 67 54q0 35 -28 35q-5 0 -14 -1t-14 -1q-21 0 -21 18q0 28 32 28q46 0 75 -24q31 -27 27 -72q-6 -59 -87 -81q-25 -7 -31 -34h-33z
" />
    <glyph glyph-name="glyph269" horiz-adv-x="541" 
d="M323 672h88q-6 -69 -49.5 -112t-112.5 -43q-132 0 -140 155h88q6 -65 57 -65q50 0 69 65zM177 703v0h-64q0 147 97 147q30 0 76 -24t55 -24q31 0 38 48h64q1 -59 -19 -98q-25 -50 -79 -50q-24 0 -71.5 24t-58.5 24q-35 0 -38 -47z" />
    <glyph glyph-name="glyph270" horiz-adv-x="249" 
 />
  </font>
</defs>
</svg>
